<svg width="41" height="41" viewBox="0 0 41 41" fill="none" xmlns="http://www.w3.org/2000/svg">
<path d="M35.8978 19.8804H38.9956V12.6826H35.6244V13.6848L34.9867 12.6826H32.0711V13.9582L31.5244 12.6826H26.1489C25.9667 12.6826 25.7844 12.7737 25.6022 12.7737C25.42 12.7737 25.3289 12.8648 25.1467 12.956C24.9644 13.0471 24.8733 13.0471 24.6911 13.1382V12.6826H9.29333L8.83778 13.8671L8.38222 12.6826H4.73778V13.9582L4.19111 12.6826H1.27556L0 15.7804V19.8804H2.09556L2.46 18.8782H3.18889L3.55333 19.8804H19.5889V18.9693L20.2267 19.8804H24.6911V19.3337C24.7822 19.4248 24.9644 19.4248 25.0556 19.516C25.1467 19.6071 25.3289 19.6071 25.42 19.6982C25.6022 19.7893 25.7844 19.7893 25.9667 19.7893H29.2467L29.6111 18.7871H30.34L30.7044 19.7893H35.1689V18.8782L35.8978 19.8804ZM40.9089 28.9915V22.2493H15.8533L15.2156 23.1604L14.5778 22.2493H7.28889V29.4471H14.5778L15.2156 28.536L15.8533 29.4471H20.4089V27.8982H20.2267C20.8644 27.8982 21.4111 27.8071 21.8667 27.6248V29.5382H25.1467V28.6271L25.7844 29.5382H39.36C39.9067 29.356 40.4533 29.2648 40.9089 28.9915Z" fill="white"/>
<path d="M39.36 27.2605H36.9V28.2627H39.2689C40.2711 28.2627 40.9089 27.625 40.9089 26.7139C40.9089 25.8027 40.3622 25.3472 39.4511 25.3472H38.3578C38.0844 25.3472 37.9022 25.165 37.9022 24.8916C37.9022 24.6183 38.0844 24.4361 38.3578 24.4361H40.4533L40.9089 23.4339H38.4489C37.4467 23.4339 36.8089 24.0716 36.8089 24.8916C36.8089 25.8027 37.3556 26.2583 38.2667 26.2583H39.36C39.6333 26.2583 39.8156 26.4405 39.8156 26.7139C39.9067 27.0783 39.7244 27.2605 39.36 27.2605ZM34.8956 27.2605H32.4356V28.2627H34.8044C35.8067 28.2627 36.4444 27.625 36.4444 26.7139C36.4444 25.8027 35.8978 25.3472 34.9867 25.3472H33.8933C33.62 25.3472 33.4378 25.165 33.4378 24.8916C33.4378 24.6183 33.62 24.4361 33.8933 24.4361H35.9889L36.4444 23.4339H33.9844C32.9822 23.4339 32.3444 24.0716 32.3444 24.8916C32.3444 25.8027 32.8911 26.2583 33.8022 26.2583H34.8956C35.1689 26.2583 35.3511 26.4405 35.3511 26.7139C35.4422 27.0783 35.1689 27.2605 34.8956 27.2605ZM31.7067 24.345V23.3427H27.88V28.1716H31.7067V27.1694H28.9733V26.1672H31.6156V25.165H28.9733V24.2539H31.7067V24.345ZM25.5111 24.345C25.9667 24.345 26.1489 24.6183 26.1489 24.8916C26.1489 25.165 25.9667 25.4383 25.5111 25.4383H24.1444V24.2539L25.5111 24.345ZM24.1444 26.4405H24.6911L26.1489 28.1716H27.5156L25.8756 26.3494C26.6956 26.1672 27.1511 25.6205 27.1511 24.8916C27.1511 23.9805 26.5133 23.3427 25.5111 23.3427H22.96V28.1716H24.0533L24.1444 26.4405ZM21.2289 24.9827C21.2289 25.3472 21.0467 25.6205 20.5911 25.6205H19.1333V24.345H20.5C20.9556 24.345 21.2289 24.6183 21.2289 24.9827ZM18.04 23.3427V28.1716H19.1333V26.5316H20.5911C21.5933 26.5316 22.3222 25.8939 22.3222 24.8916C22.3222 23.9805 21.6844 23.2516 20.6822 23.2516L18.04 23.3427ZM16.4 28.1716H17.7667L15.8533 25.7116L17.7667 23.3427H16.4L15.2156 24.8916L14.0311 23.3427H12.6644L14.5778 25.7116L12.6644 28.0805H14.0311L15.2156 26.5316L16.4 28.1716ZM12.3 24.345V23.3427H8.47333V28.1716H12.3V27.1694H9.56667V26.1672H12.2089V25.165H9.56667V24.2539H12.3V24.345ZM34.44 15.7805L36.3533 18.6961H37.72V13.8672H36.6267V17.0561L36.3533 16.6005L34.6222 13.8672H33.1644V18.6961H34.2578V15.4161L34.44 15.7805ZM29.7022 15.6894L30.0667 14.6872L30.4311 15.6894L30.8867 16.7827H29.2467L29.7022 15.6894ZM31.6156 18.6961H32.8L30.7044 13.8672H29.2467L27.1511 18.6961H28.3356L28.7911 17.6939H31.16L31.6156 18.6961ZM26.5133 18.6961L26.9689 17.6939H26.6956C25.8756 17.6939 25.42 17.1472 25.42 16.3272V16.2361C25.42 15.4161 25.8756 14.8694 26.6956 14.8694H27.88V13.8672H26.6044C25.1467 13.8672 24.3267 14.8694 24.3267 16.2361V16.3272C24.3267 17.785 25.1467 18.6961 26.5133 18.6961ZM22.4133 18.6961H23.5067V13.9583H22.4133V18.6961ZM20.0444 14.8694C20.5 14.8694 20.6822 15.1427 20.6822 15.4161C20.6822 15.6894 20.5 15.9627 20.0444 15.9627H18.6778V14.7783L20.0444 14.8694ZM18.6778 16.965H19.2244L20.6822 18.6961H22.0489L20.4089 16.8739C21.2289 16.6916 21.6844 16.145 21.6844 15.4161C21.6844 14.505 21.0467 13.8672 20.0444 13.8672H17.4933V18.6961H18.5867L18.6778 16.965ZM16.6733 14.8694V13.8672H12.8467V18.6961H16.6733V17.6939H13.94V16.6916H16.5822V15.6894H13.94V14.7783H16.6733V14.8694ZM8.38222 18.6961H9.38444L10.7511 14.7783V18.6961H11.8444V13.8672H10.0222L8.92889 17.1472L7.83556 13.8672H6.01333V18.6961H7.10667V14.7783L8.38222 18.6961ZM2.46 15.6894L2.82444 14.6872L3.18889 15.6894L3.64444 16.7827H2.00444L2.46 15.6894ZM4.37333 18.6961H5.55778L3.46222 13.8672H2.09556L0 18.6961H1.18444L1.64 17.6939H4.00889L4.37333 18.6961Z" fill="#006FCF"/>
</svg>
