<svg width="54" height="55" viewBox="0 0 54 55" fill="none" xmlns="http://www.w3.org/2000/svg">
<path d="M28.6031 28.0156C31.0263 28.0156 32.9906 26.0149 32.9906 23.5469C32.9906 21.0789 31.0263 19.0781 28.6031 19.0781C26.18 19.0781 24.2156 21.0789 24.2156 23.5469C24.2156 26.0149 26.18 28.0156 28.6031 28.0156Z" fill="#EF9122"/>
<path d="M24.2156 23.5469C24.2156 21.0547 26.1563 19.0781 28.6031 19.0781C31.05 19.0781 32.9906 21.0547 32.9906 23.5469C32.9906 26.0391 31.05 28.0156 28.6031 28.0156" fill="#F26E21"/>
<path d="M25.5656 20.3672C27.2531 18.6484 30.0375 18.6484 31.725 20.3672C33.4125 22.0859 33.4125 24.9219 31.725 26.6406" fill="#F44500"/>
<path d="M3.20625 19.3359H0.84375V27.7578H3.20625C4.47187 27.7578 5.4 27.4141 6.15938 26.8125C7.0875 26.0391 7.67813 24.8359 7.67813 23.5469C7.67813 21.0547 5.90625 19.3359 3.20625 19.3359ZM5.14687 25.6953C4.64062 26.125 3.96563 26.3828 2.95312 26.3828H2.44688V20.7969H2.86875C3.88125 20.7969 4.55625 20.9688 5.0625 21.4844C5.65312 22 5.99062 22.7734 5.99062 23.5469C6.075 24.3203 5.7375 25.1797 5.14687 25.6953Z" fill="#595A5B"/>
<path d="M8.4375 19.3359H10.0406V27.7578H8.4375V19.3359Z" fill="#595A5B"/>
<path d="M14.0906 22.6016C13.0781 22.2578 12.825 22 12.825 21.5703C12.825 21.0547 13.3313 20.625 14.0063 20.625C14.5125 20.625 14.9344 20.7969 15.3563 21.3125L16.2 20.1953C15.525 19.5938 14.6813 19.25 13.7531 19.25C12.3188 19.25 11.1375 20.2813 11.1375 21.6563C11.1375 22.8594 11.6438 23.375 13.1625 23.9766C13.8375 24.2344 14.0906 24.3203 14.2594 24.4922C14.5969 24.6641 14.7656 25.0078 14.7656 25.3516C14.7656 26.0391 14.2594 26.5547 13.5 26.5547C12.7406 26.5547 12.0656 26.125 11.7281 25.4375L10.7156 26.4688C11.475 27.5859 12.4031 28.1016 13.5844 28.1016C15.2719 28.1016 16.4531 26.9844 16.4531 25.3516C16.4531 23.8906 15.9469 23.2891 14.0906 22.6016Z" fill="#595A5B"/>
<path d="M16.9594 23.5469C16.9594 26.0391 18.9 27.9297 21.3469 27.9297C22.0219 27.9297 22.6125 27.7578 23.3719 27.4141V25.4375C22.6969 26.125 22.1063 26.3828 21.4313 26.3828C19.8281 26.3828 18.6469 25.1797 18.6469 23.4609C18.6469 21.8281 19.8281 20.5391 21.3469 20.5391C22.1063 20.5391 22.6969 20.7969 23.3719 21.4844V19.5078C22.6969 19.1641 22.1063 18.9922 21.3469 18.9922C18.9844 19.1641 16.9594 21.1406 16.9594 23.5469Z" fill="#E6EDF4"/>
<path d="M36.6188 25.0078L34.425 19.3359H32.6531L36.1125 28.0156H37.0406L40.6688 19.3359H38.8969L36.6188 25.0078Z" fill="white"/>
<path d="M41.3438 27.7578H45.9844V26.3828H43.0312V24.0625H45.9V22.6016H43.0312V20.7969H45.9844V19.3359H41.3438V27.7578Z" fill="white"/>
<path d="M50.5406 24.2344C51.8062 23.9766 52.4812 23.1172 52.4812 21.8281C52.4812 20.2812 51.3844 19.3359 49.5281 19.3359H47.0812V27.7578H48.6844V24.4062H48.9375L51.2156 27.7578H53.1562L50.5406 24.2344ZM49.1906 23.2031H48.6844V20.625H49.1906C50.2031 20.625 50.7937 21.0547 50.7937 21.9141C50.7937 22.7734 50.2031 23.2031 49.1906 23.2031Z" fill="#595A5B"/>
<path d="M3.20625 19.3359H0.84375V27.7578H3.20625C4.47187 27.7578 5.4 27.4141 6.15938 26.8125C7.0875 26.0391 7.67813 24.8359 7.67813 23.5469C7.67813 21.0547 5.90625 19.3359 3.20625 19.3359ZM5.14687 25.6953C4.64062 26.125 3.96563 26.3828 2.95312 26.3828H2.44688V20.7969H2.86875C3.88125 20.7969 4.55625 20.9688 5.0625 21.4844C5.65312 22 5.99062 22.7734 5.99062 23.5469C6.075 24.3203 5.7375 25.1797 5.14687 25.6953Z" fill="#C6D5E4"/>
<path d="M8.4375 19.3359H10.0406V27.7578H8.4375V19.3359Z" fill="#C6D5E4"/>
<path d="M14.0906 22.6016C13.0781 22.2578 12.825 22 12.825 21.5703C12.825 21.0547 13.3313 20.625 14.0063 20.625C14.5125 20.625 14.9344 20.7969 15.3563 21.3125L16.2 20.1953C15.525 19.5938 14.6813 19.25 13.7531 19.25C12.3188 19.25 11.1375 20.2813 11.1375 21.6563C11.1375 22.8594 11.6438 23.375 13.1625 23.9766C13.8375 24.2344 14.0906 24.3203 14.2594 24.4922C14.5969 24.6641 14.7656 25.0078 14.7656 25.3516C14.7656 26.0391 14.2594 26.5547 13.5 26.5547C12.7406 26.5547 12.0656 26.125 11.7281 25.4375L10.7156 26.4688C11.475 27.5859 12.4031 28.1016 13.5844 28.1016C15.2719 28.1016 16.4531 26.9844 16.4531 25.3516C16.4531 23.8906 15.9469 23.2891 14.0906 22.6016Z" fill="#C6D5E4"/>
<path d="M21.4313 27.9297C22.1063 27.9297 22.6969 27.7578 23.4563 27.4141V25.4375C22.7813 26.125 22.1906 26.3828 21.5156 26.3828C19.9125 26.3828 18.7313 25.1797 18.7313 23.4609C18.7313 22.6016 19.0688 21.9141 19.575 21.3125L18.4781 20.1953C17.6344 20.9688 17.0438 22.1719 17.0438 23.4609C16.9594 26.0391 18.9 27.9297 21.4313 27.9297Z" fill="#C6D5E4"/>
<path d="M50.5406 24.2344C51.8062 23.9766 52.4812 23.1172 52.4812 21.8281C52.4812 20.2812 51.3844 19.3359 49.5281 19.3359H47.0812V27.7578H48.6844V24.4062H48.9375L51.2156 27.7578H53.1562L50.5406 24.2344ZM49.1906 23.2031H48.6844V20.625H49.1906C50.2031 20.625 50.7937 21.0547 50.7937 21.9141C50.7937 22.7734 50.2031 23.2031 49.1906 23.2031Z" fill="white"/>
<path d="M12.7406 35.5781V30.8516L15.9469 34.2031V31.1094H16.6219V35.8359L13.4156 32.4844V35.5781H12.7406Z" fill="#F26E21"/>
<path d="M19.9969 31.7969H18.225V32.8281H19.9125V33.5156H18.225V34.9766H19.9969V35.5781H17.55V31.1094H19.9969V31.7969Z" fill="#F26E21"/>
<path d="M22.1063 31.7969V35.5781H21.4313V31.7969H20.4188V31.1953H23.1188V31.7969H22.1063Z" fill="#F26E21"/>
<path d="M24.1313 31.1953L25.2281 34.2031L26.4094 31.0234L27.5063 34.2031L28.6875 31.1953H29.5313L27.5906 35.9219L26.4938 32.7422L25.3125 35.9219L23.4563 31.1953H24.1313Z" fill="#F26E21"/>
<path d="M29.6156 33.3438C29.6226 32.7306 29.8649 32.1445 30.2906 31.7109C30.7164 31.2773 31.2917 31.0306 31.8938 31.0234C32.4958 31.0306 33.0712 31.2773 33.4969 31.7109C33.9226 32.1445 34.1649 32.7306 34.1719 33.3438C34.1649 33.9569 33.9226 34.543 33.4969 34.9766C33.0712 35.4102 32.4958 35.6569 31.8938 35.6641C31.3031 35.6641 30.7969 35.4922 30.375 35.0625C29.8688 34.6328 29.6156 34.1172 29.6156 33.3438ZM30.2906 33.3438C30.2906 33.8594 30.4594 34.2031 30.7969 34.5469C31.1344 34.8906 31.4719 35.0625 31.8938 35.0625C32.3156 35.0625 32.7375 34.8906 33.075 34.5469C33.4125 34.2031 33.5813 33.8594 33.5813 33.3438C33.5813 32.8281 33.4125 32.4844 33.075 32.1406C32.7375 31.7969 32.4 31.625 31.8938 31.625C31.4719 31.625 31.05 31.7969 30.7125 32.1406C30.4594 32.4844 30.2906 32.9141 30.2906 33.3438Z" fill="#F26E21"/>
<path d="M36.5344 33.6875L37.8844 35.5781H37.0406L35.775 33.7734H35.6906V35.5781H35.0156V31.1094H35.775C36.3656 31.1094 36.7875 31.1953 37.0406 31.4531C37.2938 31.7109 37.4625 32.0547 37.4625 32.3984C37.4625 32.7422 37.3781 33 37.2094 33.1719C37.0406 33.5156 36.7875 33.6875 36.5344 33.6875ZM35.6906 33.1719H35.8594C36.45 33.1719 36.7875 32.9141 36.7875 32.4844C36.7875 32.0547 36.45 31.7969 35.8594 31.7969H35.6063V33.1719H35.6906Z" fill="#F26E21"/>
<path d="M39.15 32.9141L40.8375 31.1094H41.6813L39.7406 33.0859L41.6813 35.4922H40.8375L39.2344 33.5156L39.0656 33.6875V35.4922H38.3906V31.0234H39.0656V32.9141H39.15Z" fill="#F26E21"/>
<path d="M44.55 26.3828H43.0313V24.8359L41.3438 23.1172V27.7578H45.9L44.55 26.3828Z" fill="#E6EDF4"/>
<path d="M38.475 20.1953L36.6188 25.0078L34.425 19.3359H32.6531L36.1125 28.0156H37.0406L39.7406 21.4844L38.475 20.1953Z" fill="#E6EDF4"/>
</svg>
