<svg width="1396" height="385" viewBox="0 0 1396 385" fill="none" xmlns="http://www.w3.org/2000/svg">
<path opacity="0.25" fill-rule="evenodd" clip-rule="evenodd" d="M676 -124L-42.99 290.417L-44 291L675.665 705.8L676.004 706L1394.99 291.583L1396 291L676.335 -123.807L676 -124ZM643.124 -103.5L676 -122.447L708.87 -103.5L676 -84.553L643.124 -103.5ZM608.9 -83.774L641.774 -102.722L674.65 -83.774L641.78 -64.827L608.9 -83.774ZM677.342 -83.774L710.22 -102.72L743.093 -83.774L710.22 -64.827L677.346 -83.774H677.342ZM711.565 -64.047L744.443 -83L777.313 -64.051L744.443 -45.1L711.565 -64.047ZM643.12 -64.047L676 -83L708.872 -64.051L676 -45.1L643.124 -64.047H643.12ZM574.68 -64.047L607.554 -83L640.428 -64.051L607.556 -45.1L574.683 -64.05L574.68 -64.047ZM745.79 -44.323L778.664 -63.272L811.534 -44.325L778.662 -25.375L745.79 -44.323ZM677.345 -44.323L710.219 -63.272L743.092 -44.322L710.219 -25.376L677.345 -44.323ZM608.903 -44.323L641.777 -63.27L674.649 -44.32L641.779 -25.374L608.9 -44.325L608.903 -44.323ZM540.46 -44.323L573.332 -63.27L606.206 -44.323L573.334 -25.373L540.46 -44.323ZM780.011 -24.6L812.885 -43.547L845.757 -24.6L812.885 -5.65L780.011 -24.6ZM711.569 -24.6L744.443 -43.547L777.313 -24.6L744.443 -5.651L711.569 -24.6ZM643.126 -24.6L676 -43.547L708.872 -24.6L676 -5.651L643.126 -24.6ZM574.683 -24.6L607.556 -43.547L640.428 -24.6L607.556 -5.651L574.683 -24.6ZM506.239 -24.6L539.113 -43.547L571.985 -24.6L539.115 -5.651L506.239 -24.6ZM472.019 -4.878L504.893 -23.823L537.765 -4.874L504.893 14.075L472.019 -4.878ZM814.233 -4.878L847.107 -23.825L879.98 -4.878L847.107 14.071L814.233 -4.878ZM745.791 -4.878L778.665 -23.825L811.537 -4.878L778.665 14.071L745.791 -4.878ZM677.348 -4.878L710.22 -23.825L743.093 -4.878L710.22 14.075L677.348 -4.878ZM608.904 -4.878L641.78 -23.825L674.652 -4.878L641.78 14.075L608.904 -4.878ZM540.461 -4.878L573.333 -23.825L606.207 -4.878L573.335 14.071L540.461 -4.878ZM506.239 14.847L539.115 -4.103L571.985 14.847L539.115 33.8L506.239 14.847ZM437.796 14.847L470.669 -4.103L503.543 14.847L470.67 33.8L437.8 14.851L437.796 14.847ZM848.456 14.847L881.328 -4.1L914.2 14.851L881.328 33.8L848.456 14.847ZM780.011 14.847L812.885 -4.1L845.757 14.846L812.885 33.8L780.011 14.847ZM711.569 14.847L744.443 -4.1L777.315 14.846L744.443 33.8L711.569 14.847ZM643.126 14.847L676 -4.1L708.872 14.846L676 33.8L643.126 14.854V14.847ZM574.683 14.847L607.556 -4.1L640.428 14.846L607.556 33.8L574.683 14.847ZM745.791 34.573L778.665 15.624L811.537 34.573L778.665 53.52L745.791 34.573ZM677.346 34.573L710.22 15.626L743.094 34.575L710.22 53.524L677.346 34.573ZM608.906 34.573L641.78 15.626L674.65 34.573L641.78 53.522L608.906 34.573ZM540.461 34.573L573.335 15.626L606.207 34.573L573.335 53.522L540.461 34.573ZM472.019 34.573L504.893 15.626L537.765 34.573L504.9 53.52L472.024 34.575L472.019 34.573ZM403.576 34.573L436.448 15.626L469.322 34.573L436.45 53.52L403.576 34.575V34.573ZM882.676 34.573L915.55 15.626L948.42 34.573L915.55 53.524L882.676 34.573ZM814.231 34.573L847.105 15.626L879.978 34.573L847.105 53.521L814.231 34.573ZM437.8 54.3L470.674 35.353L503.543 54.3L470.67 73.25L437.8 54.3ZM369.358 54.3L402.232 35.353L435.1 54.3L402.23 73.25L369.354 54.3H369.358ZM916.902 54.3L949.776 35.355L982.648 54.3L949.776 73.25L916.9 54.3H916.902ZM848.46 54.3L881.332 35.351L914.2 54.3L881.328 73.25L848.456 54.3H848.46ZM780.017 54.3L812.889 35.355L845.757 54.3L812.887 73.25L780.013 54.3H780.017ZM711.573 54.3L744.447 35.355L777.315 54.3L744.443 73.25L711.569 54.3H711.573ZM643.13 54.3L676 35.354L708.872 54.3L676 73.25L643.126 54.3H643.13ZM574.687 54.3L607.56 35.355L640.428 54.3L607.556 73.25L574.683 54.3H574.687ZM506.245 54.3L539.119 35.355L571.987 54.3L539.115 73.25L506.241 54.3H506.245ZM745.795 74.027L778.669 55.077L811.541 74.027L778.669 92.975L745.795 74.027ZM677.352 74.027L710.224 55.077L743.098 74.027L710.226 92.974L677.352 74.027ZM608.908 74.027L641.784 55.077L674.656 74.027L641.78 92.973L608.908 74.027ZM540.467 74.027L573.339 55.077L606.211 74.027L573.339 92.974L540.467 74.027ZM472.023 74.027L504.898 55.077L537.768 74.027L504.898 92.974L472.023 74.027ZM403.58 74.027L436.452 55.077L469.326 74.027L436.45 92.973L403.576 74.026L403.58 74.027ZM335.137 74.027L368.011 55.077L400.884 74.027L368.011 92.974L335.137 74.027ZM951.123 74.027L983.997 55.08L1016.87 74.028L983.997 92.975L951.123 74.027ZM882.68 74.027L915.554 55.08L948.428 74.027L915.55 92.974L882.68 74.027ZM814.237 74.027L847.111 55.08L879.984 74.027L847.111 92.974L814.237 74.027ZM916.9 93.752L949.772 74.8L982.644 93.749L949.772 112.7L916.9 93.751V93.752ZM848.458 93.752L881.328 74.8L914.2 93.752L881.328 112.7L848.456 93.755L848.458 93.752ZM780.015 93.752L812.887 74.8L845.759 93.749L812.887 112.7L780.013 93.755L780.015 93.752ZM711.571 93.752L744.443 74.8L777.315 93.749L744.443 112.7L711.569 93.755L711.571 93.752ZM643.128 93.752L676 74.8L708.872 93.749L676 112.7L643.126 93.755L643.128 93.752ZM574.685 93.752L607.556 74.8L640.428 93.749L607.558 112.7L574.683 93.75L574.685 93.752ZM506.243 93.752L539.115 74.8L571.987 93.749L539.115 112.7L506.241 93.755L506.243 93.752ZM437.798 93.752L470.67 74.8L503.543 93.749L470.67 112.7L437.8 93.75L437.798 93.752ZM369.356 93.752L402.23 74.8L435.1 93.75L402.23 112.7L369.356 93.752ZM300.913 93.752L333.783 74.8L366.657 93.747L333.785 112.7L300.913 93.752ZM985.345 93.752L1018.22 74.805L1051.09 93.752L1018.22 112.697L985.345 93.752ZM540.46 113.475L573.334 94.525L606.208 113.475L573.334 132.423L540.46 113.475ZM472.02 113.475L504.893 94.525L537.763 113.475L504.893 132.423L472.019 113.475H472.02ZM403.575 113.475L436.449 94.525L469.321 113.475L436.449 132.423L403.575 113.475ZM335.132 113.475L368.006 94.525L400.879 113.475L368.006 132.423L335.132 113.475ZM266.69 113.475L299.562 94.525L332.436 113.475L299.562 132.423L266.69 113.475ZM1019.56 113.475L1052.44 94.527L1085.31 113.475L1052.44 132.424L1019.56 113.475ZM951.119 113.475L983.993 94.527L1016.86 113.475L983.992 132.424L951.119 113.475ZM882.677 113.475L915.549 94.528L948.423 113.476L915.551 132.423L882.677 113.475ZM814.232 113.475L847.106 94.528L879.979 113.475L847.106 132.423L814.232 113.475ZM745.792 113.475L778.664 94.528L811.536 113.475L778.664 132.423L745.792 113.475ZM677.347 113.475L710.221 94.528L743.093 113.475L710.221 132.423L677.347 113.475ZM608.905 113.475L641.779 94.528L674.651 113.475L641.779 132.423L608.905 113.475ZM848.455 133.2L881.327 114.251L914.2 133.2L881.328 152.147L848.455 133.2ZM780.012 133.2L812.886 114.251L845.758 133.2L812.886 152.147L780.012 133.2ZM711.568 133.2L744.442 114.251L777.314 133.2L744.442 152.147L711.568 133.2ZM643.127 133.2L676 114.252L708.874 133.2L676 152.148L643.128 133.2H643.127ZM574.682 133.2L607.555 114.251L640.429 133.2L607.556 152.147L574.682 133.2ZM506.24 133.2L539.114 114.251L571.986 133.2L539.114 152.147L506.24 133.2ZM437.795 133.2L470.669 114.251L503.542 133.2L470.669 152.147L437.8 133.2H437.795ZM369.353 133.2L402.229 114.253L435.1 133.2L402.228 152.147L369.353 133.2ZM300.91 133.2L333.784 114.253L366.656 133.2L333.784 152.147L300.91 133.2ZM232.468 133.2L265.342 114.253L298.214 133.2L265.344 152.147L232.468 133.2ZM1053.78 133.2L1086.66 114.253L1119.53 133.2L1086.66 152.147L1053.78 133.2ZM985.342 133.2L1018.22 114.253L1051.09 133.2L1018.22 152.147L985.342 133.2ZM916.897 133.2L949.771 114.253L982.643 133.2L949.771 152.147L916.897 133.2ZM335.132 152.923L368.006 133.975L400.879 152.923L368.006 171.873L335.132 152.923ZM266.69 152.923L299.562 133.975L332.436 152.923L299.564 171.873L266.69 152.923ZM198.245 152.923L231.119 133.975L263.992 152.923L231.119 171.873L198.245 152.923ZM1088.01 152.923L1120.88 133.975L1153.75 152.923L1120.88 171.87L1088.01 152.923ZM1019.56 152.923L1052.44 133.975L1085.31 152.923L1052.44 171.87L1019.56 152.923ZM951.119 152.923L983.992 133.975L1016.86 152.923L983.994 171.87L951.119 152.923ZM882.677 152.923L915.551 133.975L948.423 152.923L915.551 171.87L882.677 152.923ZM814.232 152.923L847.106 133.975L879.979 152.923L847.106 171.87L814.232 152.923ZM745.79 152.923L778.664 133.975L811.538 152.923L778.664 171.87L745.79 152.923ZM677.347 152.923L710.221 133.977L743.093 152.925L710.221 171.872L677.347 152.923ZM608.905 152.923L641.779 133.977L674.651 152.923L641.779 171.873L608.905 152.923ZM540.462 152.923L573.334 133.977L606.208 152.923L573.334 171.873L540.462 152.923ZM472.018 152.923L504.893 133.977L537.763 152.923L504.893 171.873L472.018 152.923ZM403.577 152.923L436.449 133.977L469.321 152.923L436.449 171.873L403.577 152.923ZM300.91 172.65L333.784 153.7L366.656 172.649L333.786 191.6L300.91 172.65ZM232.468 172.65L265.342 153.7L298.214 172.649L265.342 191.6L232.468 172.65ZM916.898 172.65L949.773 153.7L982.643 172.647L949.771 191.6L916.9 172.65H916.898ZM780.012 172.65L812.886 153.7L845.758 172.647L812.886 191.6L780.012 172.65ZM711.568 172.65L744.442 153.7L777.314 172.647L744.442 191.6L711.568 172.65ZM643.127 172.65L676 153.7L708.872 172.647L676 191.6L643.127 172.65ZM574.682 172.65L607.555 153.7L640.429 172.647L607.556 191.6L574.682 172.65ZM506.24 172.65L539.114 153.7L571.986 172.647L539.114 191.6L506.24 172.65ZM437.795 172.65L470.669 153.7L503.542 172.647L470.669 191.6L437.8 172.65H437.795ZM369.355 172.65L402.229 153.7L435.1 172.65L402.229 191.6L369.355 172.65ZM164.025 172.65L196.9 153.7L229.774 172.647L196.9 191.6L164.025 172.65ZM1122.22 172.65L1155.1 153.704L1187.97 172.65L1155.1 191.6L1122.22 172.65ZM1053.78 172.65L1086.66 153.704L1119.53 172.65L1086.66 191.6L1053.78 172.653L1053.78 172.65ZM985.34 172.65L1018.21 153.705L1051.08 172.651L1018.21 191.598L985.34 172.65ZM848.454 172.65L881.327 153.704L914.2 172.65L881.327 191.6L848.457 172.653L848.454 172.65ZM1088 192.373L1120.88 173.426L1153.75 192.373L1120.88 211.322L1088 192.373ZM1019.56 192.373L1052.43 173.426L1085.31 192.373L1052.43 211.322L1019.56 192.373H1019.56ZM951.117 192.373L983.991 173.426L1016.86 192.373L983.991 211.322L951.117 192.373ZM882.675 192.373L915.549 173.426L948.421 192.373L915.549 211.322L882.675 192.373ZM814.23 192.373L847.104 173.426L879.977 192.373L847.104 211.322L814.23 192.373ZM745.79 192.373L778.662 173.426L811.536 192.373L778.664 211.322L745.79 192.373ZM677.345 192.373L710.219 173.426L743.091 192.373L710.219 211.322L677.345 192.373ZM608.903 192.373L641.777 173.426L674.649 192.373L641.777 211.322L608.903 192.373ZM540.458 192.373L573.332 173.426L606.206 192.373L573.332 211.322L540.458 192.373ZM472.018 192.373L504.891 173.428L537.761 192.375L504.891 211.322L472.017 192.373H472.018ZM403.573 192.373L436.447 173.428L469.319 192.373L436.447 211.323L403.573 192.373ZM335.133 192.373L368.004 173.428L400.877 192.375L368.004 211.322L335.132 192.373H335.133ZM266.688 192.373L299.56 173.428L332.434 192.375L299.562 211.324L266.688 192.374V192.373ZM198.245 192.373L231.115 173.428L263.99 192.375L231.117 211.322L198.245 192.373ZM129.801 192.373L162.675 173.428L195.547 192.373L162.675 211.323L129.801 192.373ZM1156.45 192.373L1189.32 173.428L1222.19 192.377L1189.32 211.324L1156.45 192.374V192.373ZM95.582 212.1L128.457 193.15L161.33 212.1L128.457 231.047L95.582 212.1ZM711.569 212.1L744.443 193.152L777.317 212.1L744.444 231.047L711.57 212.1H711.569ZM574.683 212.1L607.557 193.152L640.43 212.1L607.557 231.047L574.683 212.1ZM506.241 212.1L539.115 193.152L571.989 212.1L539.115 231.047L506.24 212.1H506.241ZM437.796 212.1L470.67 193.152L503.544 212.1L470.67 231.047L437.8 212.1H437.796ZM369.356 212.1L402.23 193.152L435.1 212.1L402.23 231.046L369.356 212.1ZM300.911 212.1L333.787 193.152L366.657 212.1L333.785 231.047L300.911 212.1ZM232.469 212.1L265.343 193.152L298.215 212.1L265.345 231.047L232.469 212.1ZM164.026 212.1L196.9 193.152L229.772 212.1L196.9 231.046L164.026 212.1ZM1190.68 212.1L1223.55 193.151L1256.42 212.101L1223.55 231.047L1190.68 212.1ZM1122.23 212.1L1155.11 193.151L1187.98 212.101L1155.11 231.047L1122.23 212.1ZM1053.79 212.1L1086.66 193.153L1119.54 212.103L1086.66 231.047L1053.79 212.1ZM985.347 212.1L1018.22 193.153L1051.09 212.1L1018.22 231.047L985.347 212.1ZM916.902 212.1L949.778 193.153L982.648 212.1L949.776 231.047L916.902 212.1ZM848.46 212.1L881.334 193.153L914.206 212.1L881.332 231.047L848.46 212.1ZM780.017 212.1L812.891 193.153L845.763 212.1L812.891 231.047L780.017 212.1ZM643.132 212.1L676.006 193.153L708.878 212.1L676.006 231.047L643.132 212.1ZM745.8 231.825L778.674 212.876L811.546 231.825L778.674 250.772L745.8 231.825ZM677.355 231.825L710.229 212.876L743.1 231.825L710.228 250.772L677.355 231.825ZM608.913 231.825L641.787 212.876L674.661 231.825L641.787 250.772L608.913 231.825ZM540.47 231.825L573.342 212.876L606.216 231.825L573.344 250.772L540.47 231.825ZM472.027 231.825L504.9 212.876L537.77 231.825L504.9 250.772L472.027 231.825ZM403.583 231.825L436.457 212.876L469.329 231.825L436.457 250.772L403.583 231.825ZM335.14 231.825L368.014 212.876L400.887 231.825L368.014 250.772L335.14 231.825ZM266.698 231.825L299.57 212.876L332.444 231.825L299.572 250.772L266.698 231.825ZM198.255 231.825L231.127 212.876L264 231.825L231.13 250.772L198.255 231.825ZM129.811 231.825L162.685 212.876L195.559 231.825L162.685 250.772L129.811 231.825ZM61.366 231.825L94.242 212.876L127.114 231.825L94.242 250.772L61.366 231.825ZM1224.9 231.825L1257.77 212.875L1290.64 231.825L1257.77 250.773L1224.9 231.825ZM1156.45 231.825L1189.33 212.875L1222.2 231.825L1189.33 250.773L1156.45 231.825ZM1088.01 231.825L1120.89 212.875L1153.76 231.825L1120.89 250.773L1088.01 231.825ZM1019.57 231.825L1052.44 212.875L1085.32 231.823L1052.44 250.77L1019.57 231.825H1019.57ZM951.125 231.825L984 212.878L1016.87 231.825L984 250.772L951.126 231.825H951.125ZM882.683 231.825L915.557 212.878L948.429 231.825L915.557 250.772L882.683 231.825ZM814.24 231.825L847.112 212.878L879.985 231.825L847.112 250.772L814.24 231.825ZM780.018 251.549L812.889 232.6L845.761 251.548L812.889 270.5L780.018 251.549ZM643.133 251.549L676 232.6L708.872 251.548L676 270.5L643.133 251.549ZM506.248 251.549L539.117 232.6L571.991 251.548L539.117 270.5L506.248 251.549ZM437.801 251.549L470.672 232.6L503.546 251.548L470.674 270.5L437.801 251.549ZM369.359 251.549L402.232 232.6L435.1 251.549L402.232 270.5L369.359 251.549ZM300.916 251.549L333.787 232.6L366.659 251.548L333.789 270.5L300.916 251.549ZM232.474 251.549L265.346 232.6L298.219 251.548L265.346 270.5L232.474 251.549ZM164.031 251.549L196.9 232.6L229.772 251.548L196.9 270.5L164.031 251.549ZM95.587 251.549L128.459 232.6L161.332 251.548L128.459 270.5L95.587 251.549ZM27.144 251.549L60.015 232.6L92.889 251.548L60.015 270.5L27.141 251.549H27.144ZM1259.12 251.549L1292 232.602L1324.87 251.549L1292 270.499L1259.12 251.549ZM1190.68 251.549L1223.55 232.602L1256.43 251.549L1223.55 270.499L1190.68 251.549ZM1122.23 251.549L1155.11 232.602L1187.98 251.549L1155.11 270.499L1122.23 251.549ZM1053.79 251.549L1086.67 232.602L1119.54 251.549L1086.67 270.499L1053.79 251.549ZM985.35 251.549L1018.22 232.602L1051.1 251.549L1018.22 270.499L985.35 251.549ZM916.905 251.549L949.778 232.6L982.65 251.547L949.776 270.5L916.9 251.549H916.905ZM848.465 251.549L881.334 232.6L914.206 251.547L881.334 270.5L848.461 251.551L848.465 251.549ZM711.577 251.549L744.448 232.6L777.321 251.547L744.448 270.5L711.577 251.549ZM574.69 251.549L607.56 232.6L640.434 251.547L607.564 270.5L574.69 251.549ZM540.47 271.274L573.344 252.325L606.216 271.274L573.344 290.222L540.47 271.274ZM472.027 271.274L504.9 252.325L537.77 271.274L504.9 290.222L472.027 271.274ZM403.583 271.274L436.457 252.325L469.331 271.274L436.457 290.222L403.58 271.274H403.583ZM335.14 271.274L368.014 252.325L400.887 271.274L368.014 290.222L335.14 271.274ZM266.698 271.274L299.572 252.325L332.444 271.274L299.572 290.222L266.698 271.274ZM198.255 271.274L231.129 252.325L264 271.274L231.128 290.222L198.255 271.274ZM129.811 271.274L162.685 252.325L195.559 271.274L162.685 290.222L129.811 271.274ZM61.366 271.274L94.242 252.325L127.114 271.274L94.242 290.222L61.366 271.274ZM-7.074 271.274L25.8 252.325L58.672 271.274L25.8 290.222L-7.074 271.274ZM1293.35 271.274L1326.22 252.324L1359.09 271.274L1326.22 290.222L1293.35 271.274ZM1224.9 271.274L1257.78 252.324L1290.65 271.274L1257.77 290.222L1224.9 271.276V271.274ZM1156.46 271.274L1189.33 252.324L1222.2 271.274L1189.33 290.222L1156.46 271.274H1156.46ZM1088.02 271.274L1120.89 252.324L1153.76 271.274L1120.89 290.222L1088.02 271.274ZM1019.57 271.274L1052.45 252.324L1085.32 271.274L1052.45 290.222L1019.58 271.274H1019.57ZM951.129 271.274L984 252.326L1016.87 271.276L984 290.224L951.126 271.276L951.129 271.274ZM882.687 271.274L915.561 252.327L948.433 271.276L915.561 290.222L882.687 271.274ZM814.244 271.274L847.118 252.327L879.99 271.274L847.116 290.222L814.244 271.274ZM745.802 271.274L778.676 252.327L811.548 271.274L778.676 290.222L745.802 271.274ZM677.357 271.274L710.231 252.324L743.1 271.274L710.228 290.222L677.354 271.276L677.357 271.274ZM608.915 271.274L641.789 252.327L674.663 271.276L641.789 290.222L608.915 271.274ZM574.689 291L607.563 272.052L640.437 291L607.565 309.947L574.689 291ZM506.249 291L539.121 272.052L572 291L539.126 309.947L506.249 291ZM437.8 291L470.676 272.052L503.55 291L470.676 309.947L437.8 291ZM369.36 291L402.234 272.052L435.1 291L402.23 309.945L369.356 291H369.36ZM300.915 291L333.789 272.052L366.663 291L333.793 309.947L300.915 291ZM232.473 291L265.35 272.05L298.223 291L265.35 309.945L232.473 291ZM164.03 291L196.9 272.05L229.772 291L196.9 309.945L164.026 291H164.03ZM95.586 291L128.461 272.052L161.337 291L128.465 309.947L95.588 291H95.586ZM27.143 291L60.017 272.052L92.893 291L60.019 309.947L27.145 291H27.143ZM-41.297 291L-8.422 272.05L24.45 291L-8.422 309.945L-41.3 291H-41.297ZM1327.56 291L1360.44 272.053L1393.3 291L1360.43 309.947L1327.56 291H1327.56ZM1259.12 291L1292 272.053L1324.86 291L1291.99 309.947L1259.11 291H1259.12ZM1190.68 291L1223.55 272.053L1256.42 291L1223.55 309.947L1190.67 291H1190.68ZM1122.23 291L1155.11 272.053L1187.98 291L1155.11 309.947L1122.23 291H1122.23ZM1053.79 291L1086.67 272.053L1119.53 291L1086.66 309.947L1053.79 291H1053.79ZM985.349 291L1018.22 272.053L1051.09 291L1018.22 309.947L985.34 291H985.349ZM916.908 291L949.78 272.053L982.65 291L949.778 309.947L916.9 291H916.908ZM848.463 291L881.336 272.053L914.2 291L881.33 309.947L848.457 291H848.463ZM780.019 291L812.9 272.053L845.761 291L812.887 309.945L780.013 291H780.019ZM711.575 291L744.45 272.053L777.325 291L744.451 309.949L711.569 291H711.575ZM643.134 291L676.008 272.055L708.874 291L676 309.945L643.128 291H643.134ZM335.141 310.723L368.015 291.776L400.888 310.723L368.015 329.671L335.141 310.723ZM266.699 310.723L299.573 291.776L332.447 310.723L299.573 329.671L266.699 310.723ZM198.256 310.723L231.13 291.776L264 310.723L231.128 329.671L198.256 310.723ZM129.814 310.723L162.688 291.776L195.56 310.723L162.688 329.671L129.814 310.723ZM61.367 310.723L94.243 291.776L127.115 310.723L94.245 329.671L61.367 310.723ZM-7.073 310.723L25.8 291.776L58.674 310.723L25.8 329.671L-7.073 310.723ZM1293.35 310.723L1326.22 291.777L1359.09 310.723L1326.22 329.673L1293.35 310.723ZM1224.9 310.723L1257.78 291.777L1290.65 310.723L1257.78 329.673L1224.9 310.723ZM1156.46 310.723L1189.33 291.777L1222.21 310.723L1189.33 329.673L1156.46 310.723H1156.46ZM1088.02 310.723L1120.89 291.777L1153.76 310.723L1120.89 329.673L1088.02 310.723ZM1019.57 310.723L1052.45 291.777L1085.32 310.723L1052.45 329.673L1019.57 310.723ZM951.13 310.723L984 291.778L1016.87 310.724L984.002 329.674L951.126 310.724L951.13 310.723ZM882.688 310.723L915.564 291.777L948.436 310.723L915.562 329.673L882.688 310.723ZM814.245 310.723L847.119 291.777L879.991 310.723L847.119 329.673L814.245 310.723ZM745.801 310.723L778.677 291.777L811.549 310.723L778.677 329.673L745.8 310.724L745.801 310.723ZM677.358 310.723L710.232 291.778L743.1 310.724L710.228 329.671L677.354 310.723H677.358ZM608.916 310.723L641.79 291.777L674.664 310.722L641.79 329.671L608.916 310.723ZM540.473 310.723L573.347 291.778L606.219 310.724L573.347 329.671L540.473 310.723ZM472.03 310.723L504.9 291.778L537.77 310.723L504.9 329.671L472.03 310.723ZM403.588 310.723L436.46 291.778L469.334 310.724L436.46 329.671L403.588 310.723ZM300.91 330.447L333.786 311.5L366.658 330.447L333.786 349.4L300.91 330.447ZM232.468 330.447L265.343 311.5L298.216 330.447L265.343 349.4L232.468 330.447ZM27.14 330.447L60.014 311.5L92.886 330.447L60.016 349.4L27.14 330.447ZM1259.12 330.447L1291.99 311.498L1324.86 330.447L1291.99 349.4L1259.12 330.447ZM1190.68 330.447L1223.55 311.498L1256.42 330.447L1223.55 349.4L1190.68 330.447ZM1122.23 330.447L1155.1 311.498L1187.98 330.447L1155.1 349.4L1122.23 330.447ZM1053.79 330.447L1086.66 311.498L1119.54 330.447L1086.66 349.4L1053.79 330.447ZM985.347 330.447L1018.22 311.5L1051.09 330.449L1018.22 349.4L985.347 330.447ZM916.905 330.447L949.777 311.5L982.651 330.449L949.777 349.4L916.9 330.451L916.905 330.447ZM848.46 330.447L881.333 311.5L914.205 330.449L881.333 349.4L848.46 330.447ZM780.016 330.447L812.89 311.5L845.764 330.449L812.89 349.4L780.016 330.447ZM711.573 330.447L744.446 311.5L777.32 330.449L744.447 349.4L711.573 330.447ZM643.131 330.447L676.005 311.5L708.877 330.449L676.005 349.4L643.131 330.447ZM574.686 330.447L607.562 311.5L640.432 330.449L607.562 349.4L574.686 330.447ZM506.244 330.447L539.118 311.5L571.992 330.449L539.118 349.4L506.244 330.447ZM437.801 330.447L470.673 311.5L503.547 330.449L470.675 349.4L437.8 330.447H437.801ZM369.359 330.447L402.233 311.5L435.107 330.445L402.233 349.4L369.359 330.447ZM164.029 330.447L196.9 311.5L229.772 330.445L196.9 349.4L164.028 330.451L164.029 330.447ZM95.586 330.447L128.462 311.5L161.334 330.445L128.462 349.4L95.586 330.447ZM266.694 350.173L299.568 331.225L332.442 350.175L299.568 369.122L266.694 350.173ZM198.249 350.173L231.123 331.225L264 350.173L231.123 369.12L198.249 350.173ZM61.364 350.173L94.24 331.225L127.112 350.173L94.24 369.12L61.364 350.173ZM1224.89 350.173L1257.77 331.224L1290.64 350.174L1257.77 369.12L1224.89 350.173ZM1156.45 350.173L1189.33 331.224L1222.2 350.174L1189.33 369.12L1156.45 350.173H1156.45ZM1088.01 350.173L1120.88 331.224L1153.76 350.174L1120.88 369.12L1088.01 350.173ZM1019.57 350.173L1052.44 331.224L1085.31 350.174L1052.44 369.12L1019.57 350.173H1019.57ZM951.123 350.173L984 331.226L1016.87 350.176L984 369.122L951.124 350.175L951.123 350.173ZM882.681 350.173L915.557 331.224L948.429 350.174L915.557 369.12L882.681 350.173ZM814.236 350.173L847.112 331.224L879.984 350.174L847.11 369.122L814.236 350.175V350.173ZM745.796 350.173L778.67 331.224L811.542 350.174L778.67 369.122L745.796 350.173ZM677.351 350.173L710.225 331.224L743.099 350.174L710.225 369.12L677.351 350.173ZM608.909 350.173L641.783 331.224L674.657 350.174L641.783 369.12L608.909 350.173ZM540.466 350.173L573.34 331.224L606.212 350.174L573.338 369.12L540.466 350.173ZM472.023 350.173L504.9 331.226L537.77 350.176L504.9 369.122L472.023 350.173ZM403.581 350.173L436.453 331.224L469.327 350.174L436.453 369.12L403.581 350.173ZM335.136 350.173L368.01 331.224L400.883 350.171L368.01 369.121L335.136 350.173ZM129.809 350.173L162.683 331.226L195.555 350.173L162.683 369.12L129.809 350.173ZM232.472 369.9L265.347 350.953L298.221 369.9L265.347 388.848L232.472 369.9ZM164.029 369.9L196.9 350.951L229.775 369.9L196.9 388.845L164.029 369.9ZM95.586 369.9L128.462 350.953L161.334 369.9L128.462 388.847L95.586 369.9ZM1190.68 369.9L1223.55 350.953L1256.42 369.9L1223.55 388.848L1190.68 369.9H1190.68ZM1122.23 369.9L1155.1 350.953L1187.98 369.9L1155.1 388.848L1122.23 369.9ZM1053.79 369.9L1086.66 350.953L1119.53 369.9L1086.66 388.848L1053.79 369.9ZM985.347 369.9L1018.22 350.953L1051.09 369.9L1018.22 388.848L985.347 369.9ZM916.905 369.9L949.777 350.953L982.651 369.9L949.777 388.848L916.9 369.9H916.905ZM848.46 369.9L881.333 350.953L914.207 369.9L881.333 388.848L848.46 369.9ZM780.016 369.9L812.89 350.953L845.762 369.9L812.892 388.848L780.016 369.9ZM711.573 369.9L744.447 350.953L777.32 369.9L744.447 388.848L711.57 369.9H711.573ZM643.131 369.9L676 350.953L708.877 369.9L676 388.848L643.131 369.9ZM574.686 369.9L607.562 350.953L640.432 369.9L607.56 388.848L574.686 369.9ZM506.246 369.9L539.118 350.953L571.992 369.9L539.12 388.848L506.246 369.9ZM437.801 369.9L470.675 350.953L503.547 369.9L470.677 388.848L437.8 369.9H437.801ZM369.359 369.9L402.233 350.953L435.107 369.9L402.233 388.848L369.359 369.9ZM300.914 369.9L333.79 350.953L366.662 369.9L333.79 388.848L300.914 369.9ZM129.814 389.622L162.688 370.675L195.562 389.622L162.688 408.571L129.814 389.622ZM1156.46 389.622L1189.34 370.672L1222.21 389.62L1189.34 408.57L1156.46 389.622ZM1088.02 389.622L1120.89 370.673L1153.77 389.623L1120.89 408.571L1088.02 389.622ZM1019.58 389.622L1052.45 370.673L1085.32 389.623L1052.45 408.571L1019.58 389.622H1019.58ZM951.132 389.622L984 370.675L1016.87 389.625L984 408.573L951.126 389.624L951.132 389.622ZM882.69 389.622L915.566 370.673L948.438 389.623L915.566 408.573L882.69 389.623V389.622ZM814.247 389.622L847.121 370.673L879.993 389.623L847.121 408.571L814.247 389.622ZM745.805 389.622L778.679 370.673L811.551 389.623L778.679 408.571L745.805 389.622ZM677.36 389.622L710.234 370.673L743.108 389.623L710.236 408.571L677.36 389.622ZM608.918 389.622L641.792 370.673L674.666 389.623L641.792 408.571L608.918 389.622ZM540.475 389.622L573.347 370.673L606.221 389.623L573.349 408.571L540.475 389.622ZM472.032 389.622L504.9 370.675L537.77 389.625L504.9 408.573L472.032 389.622ZM403.59 389.622L436.464 370.673L469.336 389.623L436.464 408.571L403.59 389.622ZM335.145 389.622L368.019 370.673L400.892 389.623L368.019 408.571L335.14 389.624L335.145 389.622ZM266.703 389.622L299.577 370.673L332.451 389.623L299.577 408.571L266.703 389.622ZM198.26 389.622L231.132 370.675L264 389.625L231.128 408.573L198.254 389.623L198.26 389.622ZM164.038 409.347L196.907 390.4L229.781 409.35L196.909 428.3L164.033 409.352L164.038 409.347ZM1053.8 409.347L1086.67 390.397L1119.55 409.347L1086.67 428.3L1053.8 409.347ZM985.355 409.347L1018.23 390.397L1051.1 409.347L1018.22 428.3L985.355 409.347ZM916.91 409.347L949.786 390.397L982.658 409.346L949.781 428.3L916.9 409.35L916.91 409.347ZM780.025 409.347L812.9 390.4L845.772 409.35L812.9 428.3L780.025 409.347ZM711.582 409.347L744.456 390.397L777.329 409.347L744.451 428.3L711.582 409.347ZM643.14 409.347L676.014 390.397L708.886 409.347L676.009 428.3L643.14 409.347ZM574.695 409.347L607.569 390.397L640.442 409.347L607.567 428.3L574.695 409.347ZM506.255 409.347L539.127 390.397L572 409.349L539.124 428.3L506.255 409.347ZM437.81 409.347L470.686 390.397L503.556 409.347L470.679 428.3L437.8 409.349L437.81 409.347ZM369.368 409.347L402.242 390.397L435.116 409.347L402.237 428.3L369.368 409.347ZM300.923 409.347L333.799 390.397L366.671 409.347L333.794 428.3L300.923 409.347ZM232.483 409.347L265.356 390.397L298.23 409.347L265.351 428.3L232.477 409.352L232.483 409.347ZM1122.24 409.347L1155.11 390.4L1187.99 409.348L1155.11 428.3L1122.24 409.347ZM848.469 409.347L881.337 390.4L914.211 409.348L881.338 428.3L848.469 409.347ZM1088.02 429.073L1120.89 410.124L1153.77 429.071L1120.89 448.02L1088.02 429.073ZM1019.58 429.073L1052.45 410.126L1085.32 429.075L1052.45 448.023L1019.58 429.073H1019.58ZM951.132 429.073L984 410.126L1016.87 429.073L984 448.023L951.126 429.075L951.132 429.073ZM814.247 429.073L847.121 410.124L879.995 429.073L847.121 448.021L814.247 429.073ZM745.805 429.073L778.679 410.126L811.551 429.075L778.681 448.023L745.8 429.073H745.805ZM677.36 429.073L710.236 410.126L743.1 429.073L710.226 448.022L677.352 429.073H677.36ZM608.918 429.073L641.792 410.126L674.666 429.073L641.792 448.022L608.918 429.073ZM540.475 429.073L573.349 410.126L606.221 429.073L573.349 448.022L540.475 429.073ZM472.032 429.073L504.9 410.126L537.773 429.073L504.9 448.022L472.032 429.073ZM403.59 429.073L436.464 410.126L469.336 429.073L436.462 448.022L403.59 429.073ZM335.147 429.073L368.019 410.126L400.892 429.073L368.022 448.022L335.147 429.073ZM266.703 429.073L299.577 410.126L332.451 429.073L299.579 448.022L266.7 429.073H266.703ZM198.26 429.073L231.134 410.126L264 429.073L231.128 448.022L198.26 429.073ZM882.693 429.073L915.563 410.126L948.438 429.073L915.56 448.022L882.693 429.073ZM574.693 448.795L607.569 429.849L640.438 448.8L607.566 467.75L574.693 448.795ZM506.253 448.795L539.127 429.849L572 448.8L539.126 467.75L506.253 448.795ZM437.806 448.795L470.682 429.849L503.551 448.8L470.679 467.75L437.806 448.795ZM369.366 448.795L402.24 429.849L435.111 448.8L402.237 467.75L369.366 448.795ZM300.923 448.795L333.797 429.849L366.666 448.8L333.796 467.75L300.923 448.795ZM232.48 448.795L265.354 429.849L298.225 448.8L265.351 467.75L232.48 448.795ZM1053.8 448.795L1086.67 429.848L1119.54 448.8L1086.67 467.75L1053.8 448.795ZM985.353 448.795L1018.23 429.848L1051.1 448.8L1018.23 467.749L985.353 448.795ZM916.912 448.795L949.784 429.85L982.656 448.797L949.784 467.744L916.909 448.8L916.912 448.795ZM848.467 448.795L881.341 429.848L914.211 448.8L881.337 467.75L848.467 448.795ZM780.025 448.795L812.9 429.852L845.76 448.8L812.888 467.749L780.014 448.8L780.025 448.795ZM711.579 448.795L744.454 429.85L777.325 448.8L744.451 467.749L711.576 448.8L711.579 448.795ZM643.138 448.795L676.012 429.85L708.881 448.8L676.011 467.75L643.135 448.8L643.138 448.795ZM882.688 468.523L915.564 449.573L948.436 468.523L915.564 487.469L882.688 468.523ZM608.916 468.523L641.79 449.574L674.664 468.523L641.79 487.47L608.916 468.523ZM540.473 468.523L573.347 449.574L606.221 468.523L573.347 487.47L540.473 468.523ZM472.03 468.523L504.9 449.575L537.773 468.524L504.9 487.471L472.03 468.523ZM403.588 468.523L436.46 449.574L469.334 468.523L436.462 487.47L403.588 468.523ZM335.145 468.523L368.019 449.574L400.889 468.523L368.019 487.47L335.145 468.523ZM266.703 468.523L299.577 449.574L332.449 468.523L299.577 487.47L266.703 468.523ZM1019.57 468.523L1052.45 449.575L1085.32 468.523L1052.45 487.47L1019.57 468.523ZM951.13 468.523L984 449.577L1016.87 468.525L984 487.472L951.124 468.525L951.13 468.523ZM814.245 468.523L847.119 449.575L879.991 468.523L847.119 487.469L814.245 468.523ZM745.803 468.523L778.677 449.575L811.549 468.523L778.679 487.47L745.8 468.525L745.803 468.523ZM677.36 468.523L710.232 449.576L743.1 468.525L710.228 487.471L677.354 468.524L677.36 468.523ZM574.69 488.248L607.56 469.3L640.432 488.25L607.56 507.2L574.684 488.253L574.69 488.248ZM506.25 488.248L539.124 469.3L572 488.249L539.124 507.2L506.25 488.248ZM437.805 488.248L470.679 469.3L503.551 488.25L470.681 507.2L437.8 488.248H437.805ZM369.363 488.248L402.23 469.3L435.1 488.25L402.231 507.2L369.356 488.253L369.363 488.248ZM300.92 488.248L333.8 469.3L366.67 488.25L333.794 507.2L300.92 488.248ZM985.351 488.248L1018.22 469.301L1051.1 488.25L1018.22 507.2L985.351 488.248ZM916.905 488.248L949.781 469.3L982.655 488.247L949.781 507.2L916.9 488.25L916.905 488.248ZM848.465 488.248L881.337 469.3L914.211 488.247L881.337 507.2L848.464 488.25L848.465 488.248ZM780.02 488.248L812.9 469.3L845.772 488.247L812.894 507.2L780.02 488.25V488.248ZM711.577 488.248L744.451 469.3L777.325 488.247L744.453 507.2L711.577 488.25V488.248ZM643.135 488.248L676.011 469.3L708.883 488.247L676.011 507.2L643.135 488.251V488.248ZM540.47 507.974L573.344 489.026L606.218 507.974L573.344 526.924L540.47 507.974ZM472.027 507.974L504.9 489.026L537.773 507.974L504.9 526.921L472.027 507.974ZM403.585 507.974L436.459 489.027L469.331 507.974L436.459 526.922L403.585 507.974ZM335.142 507.974L368.016 489.027L400.888 507.974L368.016 526.922L335.142 507.974ZM951.127 507.974L984 489.027L1016.87 507.974L984 526.924L951.126 507.974H951.127ZM882.685 507.974L915.561 489.027L948.433 507.974L915.561 526.924L882.685 507.974ZM814.24 507.974L847.116 489.027L879.988 507.974L847.116 526.924L814.24 507.974ZM745.801 507.974L778.674 489.027L811.546 507.974L778.676 526.921L745.801 507.974ZM677.357 507.974L710.231 489.027L743.1 507.974L710.226 526.924L677.357 507.974ZM608.913 507.974L641.787 489.027L674.661 507.974L641.787 526.924L608.913 507.974ZM437.8 527.7L470.676 508.751L503.553 527.7L470.681 546.649L437.8 527.7ZM369.36 527.7L402.233 508.751L435.111 527.7L402.238 546.649L369.364 527.7H369.36ZM916.904 527.7L949.776 508.751L982.65 527.7L949.776 546.649L916.909 527.7H916.904ZM848.459 527.7L881.332 508.751L914.211 527.7L881.337 546.649L848.464 527.7H848.459ZM780.017 527.7L812.889 508.751L845.768 527.7L812.9 546.648L780.022 527.7H780.017ZM711.572 527.7L744.448 508.751L777.325 527.7L744.451 546.649L711.576 527.7H711.572ZM643.132 527.7L676.006 508.751L708.883 527.7L676.011 546.649L643.137 527.7H643.132ZM574.685 527.7L607.561 508.751L640.438 527.7L607.566 546.649L574.69 527.7H574.685ZM506.245 527.7L539.119 508.753L571.99 527.7L539.116 546.649L506.242 527.7H506.245ZM472.022 547.426L504.896 528.476L537.77 547.426L504.9 566.37L472.022 547.426ZM403.58 547.426L436.456 528.476L469.328 547.426L436.46 566.37L403.584 547.423L403.58 547.426ZM882.68 547.426L915.556 528.478L948.428 547.426L915.56 566.372L882.68 547.426ZM814.237 547.426L847.111 528.478L879.985 547.426L847.113 566.375L814.237 547.426ZM745.795 547.426L778.67 528.478L811.54 547.426L778.67 566.375L745.795 547.426ZM677.352 547.426L710.226 528.478L743.1 547.423L710.23 566.372L677.352 547.426ZM608.909 547.426L641.782 528.478L674.656 547.426L641.782 566.375L608.909 547.426ZM540.465 547.426L573.339 528.478L606.213 547.426L573.341 566.375L540.47 547.423L540.465 547.426ZM437.8 567.148L470.68 548.2L503.552 567.149L470.68 586.1L437.8 567.148ZM848.46 567.148L881.33 548.2L914.2 567.147L881.331 586.1L848.457 567.152L848.46 567.148ZM780.017 567.148L812.9 548.2L845.774 567.147L812.9 586.1L780.017 567.148ZM711.572 567.148L744.451 548.2L777.325 567.147L744.451 586.1L711.572 567.148ZM643.132 567.148L676.01 548.2L708.882 567.147L676.008 586.1L643.132 567.148ZM574.687 567.148L607.56 548.2L640.432 567.147L607.56 586.1L574.686 567.152L574.687 567.148ZM506.245 567.148L539.123 548.2L572 567.148L539.125 586.1L506.25 567.148H506.245ZM814.237 586.872L847.113 567.925L879.985 586.872L847.113 605.821L814.237 586.872ZM745.795 586.872L778.67 567.925L811.54 586.872L778.67 605.821L745.795 586.872ZM677.35 586.872L710.226 567.925L743.1 586.872L710.23 605.821L677.35 586.872ZM608.911 586.872L641.781 567.925L674.656 586.872L641.782 605.821L608.912 586.872H608.911ZM540.465 586.872L573.341 567.925L606.215 586.872L573.341 605.821L540.465 586.872ZM472.022 586.872L504.9 567.925L537.774 586.872L504.9 605.821L472.022 586.872ZM780.021 606.6L812.9 587.65L845.769 606.6L812.9 625.545L780.021 606.6ZM711.576 606.6L744.45 587.65L777.324 606.6L744.45 625.545L711.576 606.6ZM643.136 606.6L676.008 587.652L708.882 606.6L676.01 625.545L643.136 606.6ZM574.691 606.6L607.565 587.652L640.437 606.6L607.565 625.547L574.691 606.6ZM506.251 606.6L539.124 587.652L572 606.6L539.127 625.547L506.25 606.6H506.251ZM745.8 626.323L778.675 607.374L811.545 626.323L778.675 645.272L745.8 626.322V626.323ZM677.357 626.323L710.231 607.374L743.1 626.323L710.232 645.27L677.356 626.323H677.357ZM608.914 626.323L641.787 607.374L674.661 626.323L641.786 645.27L608.914 626.323ZM540.472 626.323L573.346 607.374L606.218 626.323L573.345 645.27L540.472 626.323ZM643.137 646.047L676.01 627.1L708.884 646.047L676.01 665L643.137 646.047ZM574.69 646.047L607.56 627.1L640.432 646.047L607.56 665L574.684 646.051L574.69 646.047ZM711.581 646.047L744.45 627.1L777.324 646.047L744.452 665L711.581 646.047ZM677.357 665.772L710.233 646.823L743.1 665.772L710.228 684.722L677.357 665.772ZM608.914 665.772L641.787 646.823L674.661 665.772L641.788 684.722L608.914 665.772ZM643.136 685.5L676.01 666.552L708.884 685.5L676.01 704.445L643.136 685.5Z" fill="url(#paint0_radial)"/>
<defs>
<radialGradient id="paint0_radial" cx="0" cy="0" r="1" gradientUnits="userSpaceOnUse" gradientTransform="translate(707.5 267.5) rotate(-94.9817) scale(207.283 398.844)">
<stop stop-color="white"/>
<stop offset="1" stop-color="white" stop-opacity="0"/>
</radialGradient>
</defs>
</svg>
