<svg width="1113" height="781" viewBox="0 0 1113 781" fill="none" xmlns="http://www.w3.org/2000/svg">
<path opacity="0.3" fill-rule="evenodd" clip-rule="evenodd" d="M720 -49L1.01 365.417L0 366L719.665 780.8L720.004 781L1438.99 366.583L1440 366L720.335 -48.807L720 -49ZM687.124 -28.5L720 -47.447L752.87 -28.5L720 -9.553L687.124 -28.5ZM652.9 -8.774L685.774 -27.722L718.65 -8.774L685.78 10.173L652.9 -8.774ZM721.342 -8.774L754.22 -27.72L787.093 -8.774L754.22 10.173L721.346 -8.774H721.342ZM755.565 10.953L788.443 -8L821.313 10.949L788.443 29.9L755.565 10.953ZM687.12 10.953L720 -8L752.872 10.949L720 29.9L687.124 10.953H687.12ZM618.68 10.953L651.554 -8L684.428 10.949L651.556 29.9L618.683 10.95L618.68 10.953ZM789.79 30.677L822.664 11.728L855.534 30.675L822.662 49.625L789.79 30.677ZM721.345 30.677L754.219 11.728L787.092 30.678L754.219 49.624L721.345 30.677ZM652.903 30.677L685.777 11.73L718.649 30.68L685.779 49.626L652.9 30.675L652.903 30.677ZM584.46 30.677L617.332 11.73L650.206 30.677L617.334 49.627L584.46 30.677ZM824.011 50.4L856.885 31.453L889.757 50.4L856.885 69.35L824.011 50.4ZM755.569 50.4L788.443 31.453L821.313 50.4L788.443 69.349L755.569 50.4ZM687.126 50.4L720 31.453L752.872 50.4L720 69.349L687.126 50.4ZM618.683 50.4L651.556 31.453L684.428 50.4L651.556 69.349L618.683 50.4ZM550.239 50.4L583.113 31.453L615.985 50.4L583.115 69.349L550.239 50.4ZM516.019 70.122L548.893 51.177L581.765 70.126L548.893 89.075L516.019 70.122ZM858.233 70.122L891.107 51.175L923.98 70.122L891.107 89.071L858.233 70.122ZM789.791 70.122L822.665 51.175L855.537 70.122L822.665 89.071L789.791 70.122ZM721.348 70.122L754.22 51.175L787.093 70.122L754.22 89.075L721.348 70.122ZM652.904 70.122L685.78 51.175L718.652 70.122L685.78 89.075L652.904 70.122ZM584.461 70.122L617.333 51.175L650.207 70.122L617.335 89.071L584.461 70.122ZM550.239 89.847L583.115 70.897L615.985 89.847L583.115 108.8L550.239 89.847ZM481.796 89.847L514.669 70.897L547.543 89.847L514.67 108.8L481.8 89.851L481.796 89.847ZM892.456 89.847L925.328 70.9L958.2 89.851L925.328 108.8L892.456 89.847ZM824.011 89.847L856.885 70.9L889.757 89.846L856.885 108.8L824.011 89.847ZM755.569 89.847L788.443 70.9L821.315 89.846L788.443 108.8L755.569 89.847ZM687.126 89.847L720 70.9L752.872 89.846L720 108.8L687.126 89.854V89.847ZM618.683 89.847L651.556 70.9L684.428 89.846L651.556 108.8L618.683 89.847ZM789.791 109.573L822.665 90.624L855.537 109.573L822.665 128.52L789.791 109.573ZM721.346 109.573L754.22 90.626L787.094 109.575L754.22 128.524L721.346 109.573ZM652.906 109.573L685.78 90.626L718.65 109.573L685.78 128.522L652.906 109.573ZM584.461 109.573L617.335 90.626L650.207 109.573L617.335 128.522L584.461 109.573ZM516.019 109.573L548.893 90.626L581.765 109.573L548.9 128.52L516.024 109.575L516.019 109.573ZM447.576 109.573L480.448 90.626L513.322 109.573L480.45 128.52L447.576 109.575V109.573ZM926.676 109.573L959.55 90.626L992.42 109.573L959.55 128.524L926.676 109.573ZM858.231 109.573L891.105 90.626L923.978 109.573L891.105 128.521L858.231 109.573ZM481.8 129.3L514.674 110.353L547.543 129.3L514.67 148.25L481.8 129.3ZM413.358 129.3L446.232 110.353L479.1 129.3L446.23 148.25L413.354 129.3H413.358ZM960.902 129.3L993.776 110.355L1026.65 129.3L993.776 148.25L960.9 129.3H960.902ZM892.46 129.3L925.332 110.351L958.2 129.3L925.328 148.25L892.456 129.3H892.46ZM824.017 129.3L856.889 110.355L889.757 129.3L856.887 148.25L824.013 129.3H824.017ZM755.573 129.3L788.447 110.355L821.315 129.3L788.443 148.25L755.569 129.3H755.573ZM687.13 129.3L720 110.354L752.872 129.3L720 148.25L687.126 129.3H687.13ZM618.687 129.3L651.56 110.355L684.428 129.3L651.556 148.25L618.683 129.3H618.687ZM550.245 129.3L583.119 110.355L615.987 129.3L583.115 148.25L550.241 129.3H550.245ZM789.795 149.027L822.669 130.077L855.541 149.027L822.669 167.975L789.795 149.027ZM721.352 149.027L754.224 130.077L787.098 149.027L754.226 167.974L721.352 149.027ZM652.908 149.027L685.784 130.077L718.656 149.027L685.78 167.973L652.908 149.027ZM584.467 149.027L617.339 130.077L650.211 149.027L617.339 167.974L584.467 149.027ZM516.023 149.027L548.898 130.077L581.768 149.027L548.898 167.974L516.023 149.027ZM447.58 149.027L480.452 130.077L513.326 149.027L480.45 167.973L447.576 149.026L447.58 149.027ZM379.137 149.027L412.011 130.077L444.884 149.027L412.011 167.974L379.137 149.027ZM995.123 149.027L1028 130.08L1060.87 149.028L1028 167.975L995.123 149.027ZM926.68 149.027L959.554 130.08L992.428 149.027L959.55 167.974L926.68 149.027ZM858.237 149.027L891.111 130.08L923.984 149.027L891.111 167.974L858.237 149.027ZM960.9 168.752L993.772 149.8L1026.64 168.749L993.772 187.7L960.9 168.751V168.752ZM892.458 168.752L925.328 149.8L958.2 168.752L925.328 187.7L892.456 168.755L892.458 168.752ZM824.015 168.752L856.887 149.8L889.759 168.749L856.887 187.7L824.013 168.755L824.015 168.752ZM755.571 168.752L788.443 149.8L821.315 168.749L788.443 187.7L755.569 168.755L755.571 168.752ZM687.128 168.752L720 149.8L752.872 168.749L720 187.7L687.126 168.755L687.128 168.752ZM618.685 168.752L651.556 149.8L684.428 168.749L651.558 187.7L618.683 168.75L618.685 168.752ZM550.243 168.752L583.115 149.8L615.987 168.749L583.115 187.7L550.241 168.755L550.243 168.752ZM481.798 168.752L514.67 149.8L547.543 168.749L514.67 187.7L481.8 168.75L481.798 168.752ZM413.356 168.752L446.23 149.8L479.1 168.75L446.23 187.7L413.356 168.752ZM344.913 168.752L377.783 149.8L410.657 168.747L377.785 187.7L344.913 168.752ZM1029.34 168.752L1062.22 149.805L1095.09 168.752L1062.22 187.697L1029.34 168.752ZM584.46 188.475L617.334 169.525L650.208 188.475L617.334 207.423L584.46 188.475ZM516.02 188.475L548.893 169.525L581.763 188.475L548.893 207.423L516.019 188.475H516.02ZM447.575 188.475L480.449 169.525L513.321 188.475L480.449 207.423L447.575 188.475ZM379.132 188.475L412.006 169.525L444.879 188.475L412.006 207.423L379.132 188.475ZM310.69 188.475L343.562 169.525L376.436 188.475L343.562 207.423L310.69 188.475ZM1063.56 188.475L1096.44 169.527L1129.31 188.475L1096.44 207.424L1063.56 188.475ZM995.119 188.475L1027.99 169.527L1060.86 188.475L1027.99 207.424L995.119 188.475ZM926.677 188.475L959.549 169.528L992.423 188.476L959.551 207.423L926.677 188.475ZM858.232 188.475L891.106 169.528L923.979 188.475L891.106 207.423L858.232 188.475ZM789.792 188.475L822.664 169.528L855.536 188.475L822.664 207.423L789.792 188.475ZM721.347 188.475L754.221 169.528L787.093 188.475L754.221 207.423L721.347 188.475ZM652.905 188.475L685.779 169.528L718.651 188.475L685.779 207.423L652.905 188.475ZM892.455 208.2L925.327 189.251L958.2 208.2L925.328 227.147L892.455 208.2ZM824.012 208.2L856.886 189.251L889.758 208.2L856.886 227.147L824.012 208.2ZM755.568 208.2L788.442 189.251L821.314 208.2L788.442 227.147L755.568 208.2ZM687.127 208.2L720 189.252L752.874 208.2L720 227.148L687.128 208.2H687.127ZM618.682 208.2L651.555 189.251L684.429 208.2L651.556 227.147L618.682 208.2ZM550.24 208.2L583.114 189.251L615.986 208.2L583.114 227.147L550.24 208.2ZM481.795 208.2L514.669 189.251L547.542 208.2L514.669 227.147L481.8 208.2H481.795ZM413.353 208.2L446.229 189.253L479.1 208.2L446.228 227.147L413.353 208.2ZM344.91 208.2L377.784 189.253L410.656 208.2L377.784 227.147L344.91 208.2ZM276.468 208.2L309.342 189.253L342.214 208.2L309.344 227.147L276.468 208.2ZM1097.78 208.2L1130.66 189.253L1163.53 208.2L1130.66 227.147L1097.78 208.2ZM1029.34 208.2L1062.22 189.253L1095.09 208.2L1062.22 227.147L1029.34 208.2ZM960.897 208.2L993.771 189.253L1026.64 208.2L993.771 227.147L960.897 208.2ZM379.132 227.923L412.006 208.975L444.879 227.923L412.006 246.873L379.132 227.923ZM310.69 227.923L343.562 208.975L376.436 227.923L343.564 246.873L310.69 227.923ZM242.245 227.923L275.119 208.975L307.992 227.923L275.119 246.873L242.245 227.923ZM1132.01 227.923L1164.88 208.975L1197.75 227.923L1164.88 246.87L1132.01 227.923ZM1063.56 227.923L1096.44 208.975L1129.31 227.923L1096.44 246.87L1063.56 227.923ZM995.119 227.923L1027.99 208.975L1060.86 227.923L1027.99 246.87L995.119 227.923ZM926.677 227.923L959.551 208.975L992.423 227.923L959.551 246.87L926.677 227.923ZM858.232 227.923L891.106 208.975L923.979 227.923L891.106 246.87L858.232 227.923ZM789.79 227.923L822.664 208.975L855.538 227.923L822.664 246.87L789.79 227.923ZM721.347 227.923L754.221 208.977L787.093 227.925L754.221 246.872L721.347 227.923ZM652.905 227.923L685.779 208.977L718.651 227.923L685.779 246.873L652.905 227.923ZM584.462 227.923L617.334 208.977L650.208 227.923L617.334 246.873L584.462 227.923ZM516.018 227.923L548.893 208.977L581.763 227.923L548.893 246.873L516.018 227.923ZM447.577 227.923L480.449 208.977L513.321 227.923L480.449 246.873L447.577 227.923ZM344.91 247.65L377.784 228.7L410.656 247.649L377.786 266.6L344.91 247.65ZM276.468 247.65L309.342 228.7L342.214 247.649L309.342 266.6L276.468 247.65ZM960.898 247.65L993.773 228.7L1026.64 247.647L993.771 266.6L960.9 247.65H960.898ZM824.012 247.65L856.886 228.7L889.758 247.647L856.886 266.6L824.012 247.65ZM755.568 247.65L788.442 228.7L821.314 247.647L788.442 266.6L755.568 247.65ZM687.127 247.65L720 228.7L752.872 247.647L720 266.6L687.127 247.65ZM618.682 247.65L651.555 228.7L684.429 247.647L651.556 266.6L618.682 247.65ZM550.24 247.65L583.114 228.7L615.986 247.647L583.114 266.6L550.24 247.65ZM481.795 247.65L514.669 228.7L547.542 247.647L514.669 266.6L481.8 247.65H481.795ZM413.355 247.65L446.229 228.7L479.1 247.65L446.229 266.6L413.355 247.65ZM208.025 247.65L240.9 228.7L273.774 247.647L240.9 266.6L208.025 247.65ZM1166.22 247.65L1199.1 228.704L1231.97 247.65L1199.1 266.6L1166.22 247.65ZM1097.78 247.65L1130.66 228.704L1163.53 247.65L1130.66 266.6L1097.78 247.653L1097.78 247.65ZM1029.34 247.65L1062.21 228.705L1095.08 247.651L1062.21 266.598L1029.34 247.65ZM892.454 247.65L925.327 228.704L958.2 247.65L925.327 266.6L892.457 247.653L892.454 247.65ZM1132 267.373L1164.88 248.426L1197.75 267.373L1164.88 286.322L1132 267.373ZM1063.56 267.373L1096.43 248.426L1129.31 267.373L1096.43 286.322L1063.56 267.373H1063.56ZM995.117 267.373L1027.99 248.426L1060.86 267.373L1027.99 286.322L995.117 267.373ZM926.675 267.373L959.549 248.426L992.421 267.373L959.549 286.322L926.675 267.373ZM858.23 267.373L891.104 248.426L923.977 267.373L891.104 286.322L858.23 267.373ZM789.79 267.373L822.662 248.426L855.536 267.373L822.664 286.322L789.79 267.373ZM721.345 267.373L754.219 248.426L787.091 267.373L754.219 286.322L721.345 267.373ZM652.903 267.373L685.777 248.426L718.649 267.373L685.777 286.322L652.903 267.373ZM584.458 267.373L617.332 248.426L650.206 267.373L617.332 286.322L584.458 267.373ZM516.018 267.373L548.891 248.428L581.761 267.375L548.891 286.322L516.017 267.373H516.018ZM447.573 267.373L480.447 248.428L513.319 267.373L480.447 286.323L447.573 267.373ZM379.133 267.373L412.004 248.428L444.877 267.375L412.004 286.322L379.132 267.373H379.133ZM310.688 267.373L343.56 248.428L376.434 267.375L343.562 286.324L310.688 267.374V267.373ZM242.245 267.373L275.115 248.428L307.99 267.375L275.117 286.322L242.245 267.373ZM173.801 267.373L206.675 248.428L239.547 267.373L206.675 286.323L173.801 267.373ZM1200.45 267.373L1233.32 248.428L1266.19 267.377L1233.32 286.324L1200.45 267.374V267.373ZM139.582 287.1L172.457 268.15L205.33 287.1L172.457 306.047L139.582 287.1ZM755.569 287.1L788.443 268.152L821.317 287.1L788.444 306.047L755.57 287.1H755.569ZM618.683 287.1L651.557 268.152L684.43 287.1L651.557 306.047L618.683 287.1ZM550.241 287.1L583.115 268.152L615.989 287.1L583.115 306.047L550.24 287.1H550.241ZM481.796 287.1L514.67 268.152L547.544 287.1L514.67 306.047L481.8 287.1H481.796ZM413.356 287.1L446.23 268.152L479.1 287.1L446.23 306.046L413.356 287.1ZM344.911 287.1L377.787 268.152L410.657 287.1L377.785 306.047L344.911 287.1ZM276.469 287.1L309.343 268.152L342.215 287.1L309.345 306.047L276.469 287.1ZM208.026 287.1L240.9 268.152L273.772 287.1L240.9 306.046L208.026 287.1ZM1234.68 287.1L1267.55 268.151L1300.42 287.101L1267.55 306.047L1234.68 287.1ZM1166.23 287.1L1199.11 268.151L1231.98 287.101L1199.11 306.047L1166.23 287.1ZM1097.79 287.1L1130.66 268.153L1163.54 287.103L1130.66 306.047L1097.79 287.1ZM1029.35 287.1L1062.22 268.153L1095.09 287.1L1062.22 306.047L1029.35 287.1ZM960.902 287.1L993.778 268.153L1026.65 287.1L993.776 306.047L960.902 287.1ZM892.46 287.1L925.334 268.153L958.206 287.1L925.332 306.047L892.46 287.1ZM824.017 287.1L856.891 268.153L889.763 287.1L856.891 306.047L824.017 287.1ZM687.132 287.1L720.006 268.153L752.878 287.1L720.006 306.047L687.132 287.1ZM789.8 306.825L822.674 287.876L855.546 306.825L822.674 325.772L789.8 306.825ZM721.355 306.825L754.229 287.876L787.1 306.825L754.228 325.772L721.355 306.825ZM652.913 306.825L685.787 287.876L718.661 306.825L685.787 325.772L652.913 306.825ZM584.47 306.825L617.342 287.876L650.216 306.825L617.344 325.772L584.47 306.825ZM516.027 306.825L548.9 287.876L581.77 306.825L548.9 325.772L516.027 306.825ZM447.583 306.825L480.457 287.876L513.329 306.825L480.457 325.772L447.583 306.825ZM379.14 306.825L412.014 287.876L444.887 306.825L412.014 325.772L379.14 306.825ZM310.698 306.825L343.57 287.876L376.444 306.825L343.572 325.772L310.698 306.825ZM242.255 306.825L275.127 287.876L308 306.825L275.13 325.772L242.255 306.825ZM173.811 306.825L206.685 287.876L239.559 306.825L206.685 325.772L173.811 306.825ZM105.366 306.825L138.242 287.876L171.114 306.825L138.242 325.772L105.366 306.825ZM1268.9 306.825L1301.77 287.875L1334.64 306.825L1301.77 325.773L1268.9 306.825ZM1200.45 306.825L1233.33 287.875L1266.2 306.825L1233.33 325.773L1200.45 306.825ZM1132.01 306.825L1164.89 287.875L1197.76 306.825L1164.89 325.773L1132.01 306.825ZM1063.57 306.825L1096.44 287.875L1129.32 306.823L1096.44 325.77L1063.57 306.825H1063.57ZM995.125 306.825L1028 287.878L1060.87 306.825L1028 325.772L995.126 306.825H995.125ZM926.683 306.825L959.557 287.878L992.429 306.825L959.557 325.772L926.683 306.825ZM858.24 306.825L891.112 287.878L923.985 306.825L891.112 325.772L858.24 306.825ZM824.018 326.549L856.889 307.6L889.761 326.548L856.889 345.5L824.018 326.549ZM687.133 326.549L720 307.6L752.872 326.548L720 345.5L687.133 326.549ZM550.248 326.549L583.117 307.6L615.991 326.548L583.117 345.5L550.248 326.549ZM481.801 326.549L514.672 307.6L547.546 326.548L514.674 345.5L481.801 326.549ZM413.359 326.549L446.232 307.6L479.1 326.549L446.232 345.5L413.359 326.549ZM344.916 326.549L377.787 307.6L410.659 326.548L377.789 345.5L344.916 326.549ZM276.474 326.549L309.346 307.6L342.219 326.548L309.346 345.5L276.474 326.549ZM208.031 326.549L240.9 307.6L273.772 326.548L240.9 345.5L208.031 326.549ZM139.587 326.549L172.459 307.6L205.332 326.548L172.459 345.5L139.587 326.549ZM71.144 326.549L104.015 307.6L136.889 326.548L104.015 345.5L71.141 326.549H71.144ZM1303.12 326.549L1336 307.602L1368.87 326.549L1336 345.499L1303.12 326.549ZM1234.68 326.549L1267.55 307.602L1300.43 326.549L1267.55 345.499L1234.68 326.549ZM1166.23 326.549L1199.11 307.602L1231.98 326.549L1199.11 345.499L1166.23 326.549ZM1097.79 326.549L1130.67 307.602L1163.54 326.549L1130.67 345.499L1097.79 326.549ZM1029.35 326.549L1062.22 307.602L1095.1 326.549L1062.22 345.499L1029.35 326.549ZM960.905 326.549L993.778 307.6L1026.65 326.547L993.776 345.5L960.9 326.549H960.905ZM892.465 326.549L925.334 307.6L958.206 326.547L925.334 345.5L892.461 326.551L892.465 326.549ZM755.577 326.549L788.448 307.6L821.321 326.547L788.448 345.5L755.577 326.549ZM618.69 326.549L651.56 307.6L684.434 326.547L651.564 345.5L618.69 326.549ZM584.47 346.274L617.344 327.325L650.216 346.274L617.344 365.222L584.47 346.274ZM516.027 346.274L548.9 327.325L581.77 346.274L548.9 365.222L516.027 346.274ZM447.583 346.274L480.457 327.325L513.331 346.274L480.457 365.222L447.58 346.274H447.583ZM379.14 346.274L412.014 327.325L444.887 346.274L412.014 365.222L379.14 346.274ZM310.698 346.274L343.572 327.325L376.444 346.274L343.572 365.222L310.698 346.274ZM242.255 346.274L275.129 327.325L308 346.274L275.128 365.222L242.255 346.274ZM173.811 346.274L206.685 327.325L239.559 346.274L206.685 365.222L173.811 346.274ZM105.366 346.274L138.242 327.325L171.114 346.274L138.242 365.222L105.366 346.274ZM36.926 346.274L69.8 327.325L102.672 346.274L69.8 365.222L36.926 346.274ZM1337.35 346.274L1370.22 327.324L1403.09 346.274L1370.22 365.222L1337.35 346.274ZM1268.9 346.274L1301.78 327.324L1334.65 346.274L1301.77 365.222L1268.9 346.276V346.274ZM1200.46 346.274L1233.33 327.324L1266.2 346.274L1233.33 365.222L1200.46 346.274H1200.46ZM1132.02 346.274L1164.89 327.324L1197.76 346.274L1164.89 365.222L1132.02 346.274ZM1063.57 346.274L1096.45 327.324L1129.32 346.274L1096.45 365.222L1063.58 346.274H1063.57ZM995.129 346.274L1028 327.326L1060.87 346.276L1028 365.224L995.126 346.276L995.129 346.274ZM926.687 346.274L959.561 327.327L992.433 346.276L959.561 365.222L926.687 346.274ZM858.244 346.274L891.118 327.327L923.99 346.274L891.116 365.222L858.244 346.274ZM789.802 346.274L822.676 327.327L855.548 346.274L822.676 365.222L789.802 346.274ZM721.357 346.274L754.231 327.324L787.1 346.274L754.228 365.222L721.354 346.276L721.357 346.274ZM652.915 346.274L685.789 327.327L718.663 346.276L685.789 365.222L652.915 346.274ZM618.689 366L651.563 347.052L684.437 366L651.565 384.947L618.689 366ZM550.249 366L583.121 347.052L616 366L583.126 384.947L550.249 366ZM481.8 366L514.676 347.052L547.55 366L514.676 384.947L481.8 366ZM413.36 366L446.234 347.052L479.1 366L446.23 384.945L413.356 366H413.36ZM344.915 366L377.789 347.052L410.663 366L377.793 384.947L344.915 366ZM276.473 366L309.35 347.05L342.223 366L309.35 384.945L276.473 366ZM208.03 366L240.9 347.05L273.772 366L240.9 384.945L208.026 366H208.03ZM139.586 366L172.461 347.052L205.337 366L172.465 384.947L139.588 366H139.586ZM71.143 366L104.017 347.052L136.893 366L104.019 384.947L71.145 366H71.143ZM2.703 366L35.578 347.05L68.45 366L35.578 384.945L2.7 366H2.703ZM1371.56 366L1404.44 347.053L1437.3 366L1404.43 384.947L1371.56 366H1371.56ZM1303.12 366L1336 347.053L1368.86 366L1335.99 384.947L1303.11 366H1303.12ZM1234.68 366L1267.55 347.053L1300.42 366L1267.55 384.947L1234.67 366H1234.68ZM1166.23 366L1199.11 347.053L1231.98 366L1199.11 384.947L1166.23 366H1166.23ZM1097.79 366L1130.67 347.053L1163.53 366L1130.66 384.947L1097.79 366H1097.79ZM1029.35 366L1062.22 347.053L1095.09 366L1062.22 384.947L1029.34 366H1029.35ZM960.908 366L993.78 347.053L1026.65 366L993.778 384.947L960.9 366H960.908ZM892.463 366L925.336 347.053L958.2 366L925.33 384.947L892.457 366H892.463ZM824.019 366L856.9 347.053L889.761 366L856.887 384.945L824.013 366H824.019ZM755.575 366L788.45 347.053L821.325 366L788.451 384.949L755.569 366H755.575ZM687.134 366L720.008 347.055L752.874 366L720 384.945L687.128 366H687.134ZM379.141 385.723L412.015 366.776L444.888 385.723L412.015 404.671L379.141 385.723ZM310.699 385.723L343.573 366.776L376.447 385.723L343.573 404.671L310.699 385.723ZM242.256 385.723L275.13 366.776L308 385.723L275.128 404.671L242.256 385.723ZM173.814 385.723L206.688 366.776L239.56 385.723L206.688 404.671L173.814 385.723ZM105.367 385.723L138.243 366.776L171.115 385.723L138.245 404.671L105.367 385.723ZM36.927 385.723L69.8 366.776L102.674 385.723L69.8 404.671L36.927 385.723ZM1337.35 385.723L1370.22 366.777L1403.09 385.723L1370.22 404.673L1337.35 385.723ZM1268.9 385.723L1301.78 366.777L1334.65 385.723L1301.78 404.673L1268.9 385.723ZM1200.46 385.723L1233.33 366.777L1266.21 385.723L1233.33 404.673L1200.46 385.723H1200.46ZM1132.02 385.723L1164.89 366.777L1197.76 385.723L1164.89 404.673L1132.02 385.723ZM1063.57 385.723L1096.45 366.777L1129.32 385.723L1096.45 404.673L1063.57 385.723ZM995.13 385.723L1028 366.778L1060.87 385.724L1028 404.674L995.126 385.724L995.13 385.723ZM926.688 385.723L959.564 366.777L992.436 385.723L959.562 404.673L926.688 385.723ZM858.245 385.723L891.119 366.777L923.991 385.723L891.119 404.673L858.245 385.723ZM789.801 385.723L822.677 366.777L855.549 385.723L822.677 404.673L789.8 385.724L789.801 385.723ZM721.358 385.723L754.232 366.778L787.1 385.724L754.228 404.671L721.354 385.723H721.358ZM652.916 385.723L685.79 366.777L718.664 385.722L685.79 404.671L652.916 385.723ZM584.473 385.723L617.347 366.778L650.219 385.724L617.347 404.671L584.473 385.723ZM516.03 385.723L548.9 366.778L581.77 385.723L548.9 404.671L516.03 385.723ZM447.588 385.723L480.46 366.778L513.334 385.724L480.46 404.671L447.588 385.723ZM344.91 405.447L377.786 386.5L410.658 405.447L377.786 424.4L344.91 405.447ZM276.468 405.447L309.343 386.5L342.216 405.447L309.343 424.4L276.468 405.447ZM71.14 405.447L104.014 386.5L136.886 405.447L104.016 424.4L71.14 405.447ZM1303.12 405.447L1335.99 386.498L1368.86 405.447L1335.99 424.4L1303.12 405.447ZM1234.68 405.447L1267.55 386.498L1300.42 405.447L1267.55 424.4L1234.68 405.447ZM1166.23 405.447L1199.1 386.498L1231.98 405.447L1199.1 424.4L1166.23 405.447ZM1097.79 405.447L1130.66 386.498L1163.54 405.447L1130.66 424.4L1097.79 405.447ZM1029.35 405.447L1062.22 386.5L1095.09 405.449L1062.22 424.4L1029.35 405.447ZM960.905 405.447L993.777 386.5L1026.65 405.449L993.777 424.4L960.9 405.451L960.905 405.447ZM892.46 405.447L925.333 386.5L958.205 405.449L925.333 424.4L892.46 405.447ZM824.016 405.447L856.89 386.5L889.764 405.449L856.89 424.4L824.016 405.447ZM755.573 405.447L788.446 386.5L821.32 405.449L788.447 424.4L755.573 405.447ZM687.131 405.447L720.005 386.5L752.877 405.449L720.005 424.4L687.131 405.447ZM618.686 405.447L651.562 386.5L684.432 405.449L651.562 424.4L618.686 405.447ZM550.244 405.447L583.118 386.5L615.992 405.449L583.118 424.4L550.244 405.447ZM481.801 405.447L514.673 386.5L547.547 405.449L514.675 424.4L481.8 405.447H481.801ZM413.359 405.447L446.233 386.5L479.107 405.445L446.233 424.4L413.359 405.447ZM208.029 405.447L240.9 386.5L273.772 405.445L240.9 424.4L208.028 405.451L208.029 405.447ZM139.586 405.447L172.462 386.5L205.334 405.445L172.462 424.4L139.586 405.447ZM310.694 425.173L343.568 406.225L376.442 425.175L343.568 444.122L310.694 425.173ZM242.249 425.173L275.123 406.225L308 425.173L275.123 444.12L242.249 425.173ZM105.364 425.173L138.24 406.225L171.112 425.173L138.24 444.12L105.364 425.173ZM1268.89 425.173L1301.77 406.224L1334.64 425.174L1301.77 444.12L1268.89 425.173ZM1200.45 425.173L1233.33 406.224L1266.2 425.174L1233.33 444.12L1200.45 425.173H1200.45ZM1132.01 425.173L1164.88 406.224L1197.76 425.174L1164.88 444.12L1132.01 425.173ZM1063.57 425.173L1096.44 406.224L1129.31 425.174L1096.44 444.12L1063.57 425.173H1063.57ZM995.123 425.173L1028 406.226L1060.87 425.176L1028 444.122L995.124 425.175L995.123 425.173ZM926.681 425.173L959.557 406.224L992.429 425.174L959.557 444.12L926.681 425.173ZM858.236 425.173L891.112 406.224L923.984 425.174L891.11 444.122L858.236 425.175V425.173ZM789.796 425.173L822.67 406.224L855.542 425.174L822.67 444.122L789.796 425.173ZM721.351 425.173L754.225 406.224L787.099 425.174L754.225 444.12L721.351 425.173ZM652.909 425.173L685.783 406.224L718.657 425.174L685.783 444.12L652.909 425.173ZM584.466 425.173L617.34 406.224L650.212 425.174L617.338 444.12L584.466 425.173ZM516.023 425.173L548.9 406.226L581.77 425.176L548.9 444.122L516.023 425.173ZM447.581 425.173L480.453 406.224L513.327 425.174L480.453 444.12L447.581 425.173ZM379.136 425.173L412.01 406.224L444.883 425.171L412.01 444.121L379.136 425.173ZM173.809 425.173L206.683 406.226L239.555 425.173L206.683 444.12L173.809 425.173ZM276.472 444.9L309.347 425.953L342.221 444.9L309.347 463.848L276.472 444.9ZM208.029 444.9L240.9 425.951L273.775 444.9L240.9 463.845L208.029 444.9ZM139.586 444.9L172.462 425.953L205.334 444.9L172.462 463.847L139.586 444.9ZM1234.68 444.9L1267.55 425.953L1300.42 444.9L1267.55 463.848L1234.68 444.9H1234.68ZM1166.23 444.9L1199.1 425.953L1231.98 444.9L1199.1 463.848L1166.23 444.9ZM1097.79 444.9L1130.66 425.953L1163.53 444.9L1130.66 463.848L1097.79 444.9ZM1029.35 444.9L1062.22 425.953L1095.09 444.9L1062.22 463.848L1029.35 444.9ZM960.905 444.9L993.777 425.953L1026.65 444.9L993.777 463.848L960.9 444.9H960.905ZM892.46 444.9L925.333 425.953L958.207 444.9L925.333 463.848L892.46 444.9ZM824.016 444.9L856.89 425.953L889.762 444.9L856.892 463.848L824.016 444.9ZM755.573 444.9L788.447 425.953L821.32 444.9L788.447 463.848L755.57 444.9H755.573ZM687.131 444.9L720 425.953L752.877 444.9L720 463.848L687.131 444.9ZM618.686 444.9L651.562 425.953L684.432 444.9L651.56 463.848L618.686 444.9ZM550.246 444.9L583.118 425.953L615.992 444.9L583.12 463.848L550.246 444.9ZM481.801 444.9L514.675 425.953L547.547 444.9L514.677 463.848L481.8 444.9H481.801ZM413.359 444.9L446.233 425.953L479.107 444.9L446.233 463.848L413.359 444.9ZM344.914 444.9L377.79 425.953L410.662 444.9L377.79 463.848L344.914 444.9ZM173.814 464.622L206.688 445.675L239.562 464.622L206.688 483.571L173.814 464.622ZM1200.46 464.622L1233.34 445.672L1266.21 464.62L1233.34 483.57L1200.46 464.622ZM1132.02 464.622L1164.89 445.673L1197.77 464.623L1164.89 483.571L1132.02 464.622ZM1063.58 464.622L1096.45 445.673L1129.32 464.623L1096.45 483.571L1063.58 464.622H1063.58ZM995.132 464.622L1028 445.675L1060.87 464.625L1028 483.573L995.126 464.624L995.132 464.622ZM926.69 464.622L959.566 445.673L992.438 464.623L959.566 483.573L926.69 464.623V464.622ZM858.247 464.622L891.121 445.673L923.993 464.623L891.121 483.571L858.247 464.622ZM789.805 464.622L822.679 445.673L855.551 464.623L822.679 483.571L789.805 464.622ZM721.36 464.622L754.234 445.673L787.108 464.623L754.236 483.571L721.36 464.622ZM652.918 464.622L685.792 445.673L718.666 464.623L685.792 483.571L652.918 464.622ZM584.475 464.622L617.347 445.673L650.221 464.623L617.349 483.571L584.475 464.622ZM516.032 464.622L548.9 445.675L581.77 464.625L548.9 483.573L516.032 464.622ZM447.59 464.622L480.464 445.673L513.336 464.623L480.464 483.571L447.59 464.622ZM379.145 464.622L412.019 445.673L444.892 464.623L412.019 483.571L379.14 464.624L379.145 464.622ZM310.703 464.622L343.577 445.673L376.451 464.623L343.577 483.571L310.703 464.622ZM242.26 464.622L275.132 445.675L308 464.625L275.128 483.573L242.254 464.623L242.26 464.622ZM208.038 484.347L240.907 465.4L273.781 484.35L240.909 503.3L208.033 484.352L208.038 484.347ZM1097.8 484.347L1130.67 465.397L1163.55 484.347L1130.67 503.3L1097.8 484.347ZM1029.35 484.347L1062.23 465.397L1095.1 484.347L1062.22 503.3L1029.35 484.347ZM960.91 484.347L993.786 465.397L1026.66 484.346L993.781 503.3L960.9 484.35L960.91 484.347ZM824.025 484.347L856.9 465.4L889.772 484.35L856.9 503.3L824.025 484.347ZM755.582 484.347L788.456 465.397L821.329 484.347L788.451 503.3L755.582 484.347ZM687.14 484.347L720.014 465.397L752.886 484.347L720.009 503.3L687.14 484.347ZM618.695 484.347L651.569 465.397L684.442 484.347L651.567 503.3L618.695 484.347ZM550.255 484.347L583.127 465.397L616 484.349L583.124 503.3L550.255 484.347ZM481.81 484.347L514.686 465.397L547.556 484.347L514.679 503.3L481.8 484.349L481.81 484.347ZM413.368 484.347L446.242 465.397L479.116 484.347L446.237 503.3L413.368 484.347ZM344.923 484.347L377.799 465.397L410.671 484.347L377.794 503.3L344.923 484.347ZM276.483 484.347L309.356 465.397L342.23 484.347L309.351 503.3L276.477 484.352L276.483 484.347ZM1166.24 484.347L1199.11 465.4L1231.99 484.348L1199.11 503.3L1166.24 484.347ZM892.469 484.347L925.337 465.4L958.211 484.348L925.338 503.3L892.469 484.347ZM1132.02 504.073L1164.89 485.124L1197.77 504.071L1164.89 523.02L1132.02 504.073ZM1063.58 504.073L1096.45 485.126L1129.32 504.075L1096.45 523.023L1063.58 504.073H1063.58ZM995.132 504.073L1028 485.126L1060.87 504.073L1028 523.023L995.126 504.075L995.132 504.073ZM858.247 504.073L891.121 485.124L923.995 504.073L891.121 523.021L858.247 504.073ZM789.805 504.073L822.679 485.126L855.551 504.075L822.681 523.023L789.8 504.073H789.805ZM721.36 504.073L754.236 485.126L787.1 504.073L754.226 523.022L721.352 504.073H721.36ZM652.918 504.073L685.792 485.126L718.666 504.073L685.792 523.022L652.918 504.073ZM584.475 504.073L617.349 485.126L650.221 504.073L617.349 523.022L584.475 504.073ZM516.032 504.073L548.9 485.126L581.773 504.073L548.9 523.022L516.032 504.073ZM447.59 504.073L480.464 485.126L513.336 504.073L480.462 523.022L447.59 504.073ZM379.147 504.073L412.019 485.126L444.892 504.073L412.022 523.022L379.147 504.073ZM310.703 504.073L343.577 485.126L376.451 504.073L343.579 523.022L310.7 504.073H310.703ZM242.26 504.073L275.134 485.126L308 504.073L275.128 523.022L242.26 504.073ZM926.693 504.073L959.563 485.126L992.438 504.073L959.56 523.022L926.693 504.073ZM618.693 523.795L651.569 504.849L684.438 523.8L651.566 542.75L618.693 523.795ZM550.253 523.795L583.127 504.849L616 523.8L583.126 542.75L550.253 523.795ZM481.806 523.795L514.682 504.849L547.551 523.8L514.679 542.75L481.806 523.795ZM413.366 523.795L446.24 504.849L479.111 523.8L446.237 542.75L413.366 523.795ZM344.923 523.795L377.797 504.849L410.666 523.8L377.796 542.75L344.923 523.795ZM276.48 523.795L309.354 504.849L342.225 523.8L309.351 542.75L276.48 523.795ZM1097.8 523.795L1130.67 504.848L1163.54 523.8L1130.67 542.75L1097.8 523.795ZM1029.35 523.795L1062.23 504.848L1095.1 523.8L1062.23 542.749L1029.35 523.795ZM960.912 523.795L993.784 504.85L1026.66 523.797L993.784 542.744L960.909 523.8L960.912 523.795ZM892.467 523.795L925.341 504.848L958.211 523.8L925.337 542.75L892.467 523.795ZM824.025 523.795L856.9 504.852L889.76 523.8L856.888 542.749L824.014 523.8L824.025 523.795ZM755.579 523.795L788.454 504.85L821.325 523.8L788.451 542.749L755.576 523.8L755.579 523.795ZM687.138 523.795L720.012 504.85L752.881 523.8L720.011 542.75L687.135 523.8L687.138 523.795ZM926.688 543.523L959.564 524.573L992.436 543.523L959.564 562.469L926.688 543.523ZM652.916 543.523L685.79 524.574L718.664 543.523L685.79 562.47L652.916 543.523ZM584.473 543.523L617.347 524.574L650.221 543.523L617.347 562.47L584.473 543.523ZM516.03 543.523L548.9 524.575L581.773 543.524L548.9 562.471L516.03 543.523ZM447.588 543.523L480.46 524.574L513.334 543.523L480.462 562.47L447.588 543.523ZM379.145 543.523L412.019 524.574L444.889 543.523L412.019 562.47L379.145 543.523ZM310.703 543.523L343.577 524.574L376.449 543.523L343.577 562.47L310.703 543.523ZM1063.57 543.523L1096.45 524.575L1129.32 543.523L1096.45 562.47L1063.57 543.523ZM995.13 543.523L1028 524.577L1060.87 543.525L1028 562.472L995.124 543.525L995.13 543.523ZM858.245 543.523L891.119 524.575L923.991 543.523L891.119 562.469L858.245 543.523ZM789.803 543.523L822.677 524.575L855.549 543.523L822.679 562.47L789.8 543.525L789.803 543.523ZM721.36 543.523L754.232 524.576L787.1 543.525L754.228 562.471L721.354 543.524L721.36 543.523ZM618.69 563.248L651.56 544.3L684.432 563.25L651.56 582.2L618.684 563.253L618.69 563.248ZM550.25 563.248L583.124 544.3L616 563.249L583.124 582.2L550.25 563.248ZM481.805 563.248L514.679 544.3L547.551 563.25L514.681 582.2L481.8 563.248H481.805ZM413.363 563.248L446.23 544.3L479.1 563.25L446.231 582.2L413.356 563.253L413.363 563.248ZM344.92 563.248L377.8 544.3L410.67 563.25L377.794 582.2L344.92 563.248ZM1029.35 563.248L1062.22 544.301L1095.1 563.25L1062.22 582.2L1029.35 563.248ZM960.905 563.248L993.781 544.3L1026.66 563.247L993.781 582.2L960.9 563.25L960.905 563.248ZM892.465 563.248L925.337 544.3L958.211 563.247L925.337 582.2L892.464 563.25L892.465 563.248ZM824.02 563.248L856.9 544.3L889.772 563.247L856.894 582.2L824.02 563.25V563.248ZM755.577 563.248L788.451 544.3L821.325 563.247L788.453 582.2L755.577 563.25V563.248ZM687.135 563.248L720.011 544.3L752.883 563.247L720.011 582.2L687.135 563.251V563.248ZM584.47 582.974L617.344 564.026L650.218 582.974L617.344 601.924L584.47 582.974ZM516.027 582.974L548.9 564.026L581.773 582.974L548.9 601.921L516.027 582.974ZM447.585 582.974L480.459 564.027L513.331 582.974L480.459 601.922L447.585 582.974ZM379.142 582.974L412.016 564.027L444.888 582.974L412.016 601.922L379.142 582.974ZM995.127 582.974L1028 564.027L1060.87 582.974L1028 601.924L995.126 582.974H995.127ZM926.685 582.974L959.561 564.027L992.433 582.974L959.561 601.924L926.685 582.974ZM858.24 582.974L891.116 564.027L923.988 582.974L891.116 601.924L858.24 582.974ZM789.801 582.974L822.674 564.027L855.546 582.974L822.676 601.921L789.801 582.974ZM721.357 582.974L754.231 564.027L787.1 582.974L754.226 601.924L721.357 582.974ZM652.913 582.974L685.787 564.027L718.661 582.974L685.787 601.924L652.913 582.974ZM481.8 602.7L514.676 583.751L547.553 602.7L514.681 621.649L481.8 602.7ZM413.36 602.7L446.233 583.751L479.111 602.7L446.238 621.649L413.364 602.7H413.36ZM960.904 602.7L993.776 583.751L1026.65 602.7L993.776 621.649L960.909 602.7H960.904ZM892.459 602.7L925.332 583.751L958.211 602.7L925.337 621.649L892.464 602.7H892.459ZM824.017 602.7L856.889 583.751L889.768 602.7L856.9 621.648L824.022 602.7H824.017ZM755.572 602.7L788.448 583.751L821.325 602.7L788.451 621.649L755.576 602.7H755.572ZM687.132 602.7L720.006 583.751L752.883 602.7L720.011 621.649L687.137 602.7H687.132ZM618.685 602.7L651.561 583.751L684.438 602.7L651.566 621.649L618.69 602.7H618.685ZM550.245 602.7L583.119 583.753L615.99 602.7L583.116 621.649L550.242 602.7H550.245ZM516.022 622.426L548.896 603.476L581.77 622.426L548.9 641.37L516.022 622.426ZM447.58 622.426L480.456 603.476L513.328 622.426L480.46 641.37L447.584 622.423L447.58 622.426ZM926.68 622.426L959.556 603.478L992.428 622.426L959.56 641.372L926.68 622.426ZM858.237 622.426L891.111 603.478L923.985 622.426L891.113 641.375L858.237 622.426ZM789.795 622.426L822.67 603.478L855.54 622.426L822.67 641.375L789.795 622.426ZM721.352 622.426L754.226 603.478L787.1 622.423L754.23 641.372L721.352 622.426ZM652.909 622.426L685.782 603.478L718.656 622.426L685.782 641.375L652.909 622.426ZM584.465 622.426L617.339 603.478L650.213 622.426L617.341 641.375L584.47 622.423L584.465 622.426ZM481.8 642.148L514.68 623.2L547.552 642.149L514.68 661.1L481.8 642.148ZM892.46 642.148L925.33 623.2L958.2 642.147L925.331 661.1L892.457 642.152L892.46 642.148ZM824.017 642.148L856.9 623.2L889.774 642.147L856.9 661.1L824.017 642.148ZM755.572 642.148L788.451 623.2L821.325 642.147L788.451 661.1L755.572 642.148ZM687.132 642.148L720.01 623.2L752.882 642.147L720.008 661.1L687.132 642.148ZM618.687 642.148L651.56 623.2L684.432 642.147L651.56 661.1L618.686 642.152L618.687 642.148ZM550.245 642.148L583.123 623.2L616 642.148L583.125 661.1L550.25 642.148H550.245ZM858.237 661.872L891.113 642.925L923.985 661.872L891.113 680.821L858.237 661.872ZM789.795 661.872L822.67 642.925L855.54 661.872L822.67 680.821L789.795 661.872ZM721.35 661.872L754.226 642.925L787.1 661.872L754.23 680.821L721.35 661.872ZM652.911 661.872L685.781 642.925L718.656 661.872L685.782 680.821L652.912 661.872H652.911ZM584.465 661.872L617.341 642.925L650.215 661.872L617.341 680.821L584.465 661.872ZM516.022 661.872L548.9 642.925L581.774 661.872L548.9 680.821L516.022 661.872ZM824.021 681.6L856.9 662.65L889.769 681.6L856.9 700.545L824.021 681.6ZM755.576 681.6L788.45 662.65L821.324 681.6L788.45 700.545L755.576 681.6ZM687.136 681.6L720.008 662.652L752.882 681.6L720.01 700.545L687.136 681.6ZM618.691 681.6L651.565 662.652L684.437 681.6L651.565 700.547L618.691 681.6ZM550.251 681.6L583.124 662.652L616 681.6L583.127 700.547L550.25 681.6H550.251ZM789.8 701.323L822.675 682.374L855.545 701.323L822.675 720.272L789.8 701.322V701.323ZM721.357 701.323L754.231 682.374L787.1 701.323L754.232 720.27L721.356 701.323H721.357ZM652.914 701.323L685.787 682.374L718.661 701.323L685.786 720.27L652.914 701.323ZM584.472 701.323L617.346 682.374L650.218 701.323L617.345 720.27L584.472 701.323ZM687.137 721.047L720.01 702.1L752.884 721.047L720.01 740L687.137 721.047ZM618.69 721.047L651.56 702.1L684.432 721.047L651.56 740L618.684 721.051L618.69 721.047ZM755.581 721.047L788.45 702.1L821.324 721.047L788.452 740L755.581 721.047ZM721.357 740.772L754.233 721.823L787.1 740.772L754.228 759.722L721.357 740.772ZM652.914 740.772L685.787 721.823L718.661 740.772L685.788 759.722L652.914 740.772ZM687.136 760.5L720.01 741.552L752.884 760.5L720.01 779.445L687.136 760.5Z" fill="url(#paint0_radial)"/>
<defs>
<radialGradient id="paint0_radial" cx="0" cy="0" r="1" gradientUnits="userSpaceOnUse" gradientTransform="translate(674 371) rotate(-96.6304) scale(316.114 536.589)">
<stop stop-color="white"/>
<stop offset="0.716779" stop-color="white" stop-opacity="0"/>
</radialGradient>
</defs>
</svg>
