<svg width="48" height="48" viewBox="0 0 48 48" fill="none" xmlns="http://www.w3.org/2000/svg">
<path fill-rule="evenodd" clip-rule="evenodd" d="M24 0.872192C11.2476 0.872192 0.872437 11.2474 0.872437 23.9998C0.872437 36.7522 11.2476 47.1274 24 47.1274C36.7524 47.1274 47.1276 36.7522 47.1276 23.9998C47.1276 11.2474 36.7524 0.872192 24 0.872192ZM24 44.509C12.6912 44.5078 3.49204 35.3086 3.49204 23.9998C3.49204 12.691 12.6912 3.49179 24 3.49179C35.3088 3.49179 44.508 12.6898 44.508 23.9998C44.508 35.3098 35.31 44.5078 24 44.5078V44.509ZM25.476 15.3754C26.9472 15.3754 28.146 16.4002 28.146 17.659C28.146 18.0061 28.2839 18.3389 28.5293 18.5843C28.7747 18.8297 29.1076 18.9676 29.4546 18.9676C29.8017 18.9676 30.1345 18.8297 30.38 18.5843C30.6254 18.3389 30.7632 18.0061 30.7632 17.659C30.7632 14.9566 28.392 12.757 25.4772 12.757H25.3092V10.9078C25.3092 10.5606 25.1713 10.2276 24.9258 9.98205C24.6803 9.73653 24.3473 9.59859 24 9.59859C23.6528 9.59859 23.3198 9.73653 23.0743 9.98205C22.8288 10.2276 22.6908 10.5606 22.6908 10.9078V12.8782C19.5864 13.4422 17.2368 15.967 17.2368 18.9934C17.2368 22.0198 19.5864 24.5446 22.6908 25.1086V32.4274C21.09 32.2198 19.854 31.033 19.854 29.5906C19.854 29.2435 19.7162 28.9107 19.4708 28.6653C19.2253 28.4199 18.8925 28.282 18.5454 28.282C18.1984 28.282 17.8655 28.4199 17.6201 28.6653C17.3747 28.9107 17.2368 29.2435 17.2368 29.5906C17.2368 32.4658 19.6452 34.807 22.6908 35.0434V37.0894C22.6908 37.4366 22.8288 37.7696 23.0743 38.0151C23.3198 38.2607 23.6528 38.3986 24 38.3986C24.3473 38.3986 24.6803 38.2607 24.9258 38.0151C25.1713 37.7696 25.3092 37.4366 25.3092 37.0894V34.9678C28.4136 34.4038 30.7632 31.8778 30.7632 28.8526C30.7632 25.8262 28.4136 23.3014 25.3092 22.7362V15.3754H25.4772H25.476ZM22.692 22.411C21.048 21.9298 19.854 20.5894 19.854 18.9946C19.854 17.3998 21.048 16.0606 22.6908 15.5782V22.411H22.692ZM28.146 28.8526C28.146 30.445 26.952 31.7866 25.3092 32.269V25.435C26.952 25.915 28.146 27.2578 28.146 28.8526Z" fill="white"/>
</svg>
