<svg width="48" height="48" viewBox="0 0 48 48" fill="none" xmlns="http://www.w3.org/2000/svg">
<path d="M22.7796 30.8676C21.9351 30.6066 21.1963 30.0821 20.6716 29.3707C20.1468 28.6594 19.8637 27.7987 19.8636 26.9148C19.8636 26.591 19.9922 26.2804 20.2212 26.0514C20.4502 25.8224 20.7608 25.6938 21.0846 25.6938C21.4084 25.6938 21.719 25.8224 21.948 26.0514C22.177 26.2804 22.3056 26.591 22.3056 26.9148C22.3056 27.2499 22.405 27.5775 22.5912 27.8562C22.7773 28.1348 23.042 28.352 23.3516 28.4802C23.6612 28.6085 24.0019 28.642 24.3306 28.5766C24.6592 28.5113 24.9611 28.3499 25.1981 28.1129C25.4351 27.876 25.5965 27.574 25.6618 27.2454C25.7272 26.9167 25.6937 26.576 25.5654 26.2664C25.4372 25.9568 25.22 25.6921 24.9414 25.506C24.6627 25.3198 24.3351 25.2204 24 25.2204C23.0103 25.2199 22.0535 24.8645 21.3035 24.2188C20.5534 23.5731 20.0597 22.6798 19.9121 21.7012C19.7644 20.7225 19.9725 19.7234 20.4987 18.8851C21.0248 18.0468 21.8341 17.4249 22.7796 17.1324V17.0868C22.7796 16.9265 22.8112 16.7678 22.8725 16.6198C22.9338 16.4717 23.0237 16.3372 23.137 16.2239C23.2504 16.1105 23.3849 16.0206 23.533 15.9593C23.681 15.898 23.8397 15.8664 24 15.8664C24.1603 15.8664 24.319 15.898 24.467 15.9593C24.6151 16.0206 24.7496 16.1105 24.863 16.2239C24.9763 16.3372 25.0662 16.4717 25.1275 16.6198C25.1888 16.7678 25.2204 16.9265 25.2204 17.0868V17.1324C26.0649 17.3934 26.8037 17.9179 27.3284 18.6293C27.8532 19.3406 28.1363 20.2013 28.1364 21.0852C28.1364 21.409 28.0078 21.7196 27.7788 21.9486C27.5498 22.1776 27.2392 22.3062 26.9154 22.3062C26.5916 22.3062 26.281 22.1776 26.052 21.9486C25.823 21.7196 25.6944 21.409 25.6944 21.0852C25.6944 20.7501 25.595 20.4225 25.4089 20.1438C25.2227 19.8652 24.958 19.648 24.6484 19.5198C24.3388 19.3915 23.9981 19.358 23.6694 19.4234C23.3408 19.4887 23.0389 19.6501 22.8019 19.8871C22.5649 20.124 22.4035 20.426 22.3382 20.7546C22.2728 21.0833 22.3063 21.424 22.4346 21.7336C22.5628 22.0432 22.78 22.3079 23.0586 22.494C23.3373 22.6802 23.6649 22.7796 24 22.7796C24.9897 22.7801 25.9465 23.1355 26.6965 23.7812C27.4466 24.4269 27.9403 25.3202 28.0879 26.2988C28.2356 27.2775 28.0275 28.2766 27.5013 29.1149C26.9752 29.9532 26.1659 30.5751 25.2204 30.8676V30.9132C25.2204 31.0735 25.1888 31.2322 25.1275 31.3802C25.0662 31.5283 24.9763 31.6628 24.863 31.7762C24.7496 31.8895 24.6151 31.9794 24.467 32.0407C24.319 32.102 24.1603 32.1336 24 32.1336C23.8397 32.1336 23.681 32.102 23.533 32.0407C23.3849 31.9794 23.2504 31.8895 23.137 31.7762C23.0237 31.6628 22.9338 31.5283 22.8725 31.3802C22.8112 31.2322 22.7796 31.0735 22.7796 30.9132V30.8676ZM39.078 33.204C39.0303 33.0481 39.0143 32.8842 39.031 32.722C39.0477 32.5598 39.0967 32.4025 39.1752 32.2596C39.774 31.17 40.2468 30.0372 40.5768 28.8864C40.668 28.5684 40.884 28.302 41.1768 28.146L45.558 25.806V22.182L41.178 19.8552C41.0329 19.7781 40.9048 19.6724 40.8015 19.5446C40.6982 19.4167 40.6217 19.2693 40.5768 19.1112C40.2385 17.934 39.7683 16.7988 39.1752 15.7272C39.0969 15.5842 39.0481 15.4269 39.0316 15.2647C39.0151 15.1025 39.0313 14.9386 39.0792 14.7828L40.5312 10.0308L37.9704 7.4688L33.2172 8.9208C32.9016 9.018 32.5608 8.9832 32.2716 8.8248C31.1796 8.2248 30.0468 7.7532 28.8888 7.4232C28.7308 7.37839 28.5835 7.30216 28.4556 7.19907C28.3278 7.09597 28.2221 6.96812 28.1448 6.8232L25.818 2.442H22.194L19.854 6.8244C19.698 7.116 19.4316 7.332 19.1136 7.4232C17.9616 7.7532 16.83 8.226 15.7416 8.8248C15.4524 8.9832 15.1116 9.018 14.796 8.9208L10.0428 7.4688L7.48079 10.0296L8.93401 14.7828C9.03001 15.0984 8.9952 15.4392 8.8368 15.7284C8.24952 16.8031 7.77885 17.9376 7.4328 19.1124C7.3392 19.4244 7.1244 19.6884 6.8352 19.842L2.442 22.182V25.806L6.8352 28.146C7.128 28.3008 7.344 28.5684 7.4352 28.8864C7.7664 30.0384 8.2392 31.17 8.8368 32.2584C8.9952 32.5476 9.03121 32.8884 8.93401 33.204L7.482 37.9572L10.0428 40.5192L14.796 39.066C15.1116 38.97 15.4524 39.0048 15.7404 39.1632C16.83 39.762 17.9628 40.2336 19.1136 40.5648C19.4316 40.656 19.6992 40.872 19.8552 41.1648L22.194 45.558H25.818L28.158 41.1648C28.3116 40.8768 28.5744 40.6608 28.8876 40.5672C30.0624 40.2212 31.1969 39.7505 32.2716 39.1632C32.5596 39.0048 32.9016 38.9688 33.2172 39.066L37.9692 40.518L40.5312 37.9572L39.0792 33.204H39.078ZM41.562 32.9736L43.0812 37.9452C43.2132 38.3772 43.0956 38.8452 42.7764 39.1656L39.1776 42.7644C39.0209 42.921 38.8245 43.032 38.6095 43.0855C38.3945 43.139 38.169 43.1329 37.9572 43.068L32.9856 41.5488C32.0616 42.024 31.0884 42.4272 30.0768 42.7548L27.6288 47.3532C27.4176 47.7516 27.0036 48 26.5524 48H21.4608C21.0096 48 20.5956 47.7516 20.3832 47.352L17.9376 42.7596C16.9351 42.4374 15.9613 42.032 15.0264 41.5476L10.0548 43.068C9.6228 43.2 9.1548 43.0836 8.8344 42.7644L5.23561 39.1644C5.07921 39.0078 4.96832 38.8116 4.91484 38.5969C4.86137 38.3821 4.8673 38.1569 4.932 37.9452L6.45121 32.9736C5.96401 32.0292 5.55841 31.0548 5.24041 30.0624L0.646802 27.6168C0.451386 27.5127 0.287961 27.3575 0.174024 27.1677C0.0600862 26.9778 -7.25463e-05 26.7606 6.56543e-08 26.5392V21.4476C6.56543e-08 20.9964 0.248392 20.5824 0.647992 20.37L5.2452 17.922C5.5728 16.9116 5.97721 15.9396 6.45121 15.0144L4.932 10.0428C4.8 9.6108 4.91641 9.1416 5.23561 8.8224L8.83561 5.2224C8.9922 5.066 9.18836 4.95513 9.40313 4.90165C9.61789 4.84817 9.84315 4.8541 10.0548 4.9188L15.0264 6.4392C15.9708 5.9508 16.9464 5.5452 17.9388 5.2272L20.3832 0.645598C20.5956 0.248398 21.0096 0 21.4608 0H26.5524C27.0036 0 27.4188 0.249601 27.63 0.648001L30.0624 5.2272C31.0608 5.5428 32.0376 5.9496 32.9868 6.4392L37.9572 4.9188C38.3892 4.7868 38.8584 4.9044 39.1776 5.2236L42.7776 8.8224C43.0956 9.1416 43.2132 9.6108 43.0812 10.0428L41.5608 15.0132C42.0504 15.9624 42.4572 16.9392 42.7728 17.9376L47.352 20.37C47.7504 20.5812 48 20.9964 48 21.4476V26.5392C48 26.9904 47.7516 27.4032 47.3544 27.6168L42.7716 30.0612C42.4548 31.0548 42.0492 32.0292 41.5608 32.9736H41.562ZM24 35.8296C17.466 35.8296 12.1704 30.534 12.1704 24C12.1704 17.466 17.466 12.1704 24 12.1704C30.534 12.1704 35.8296 17.466 35.8296 24C35.8296 30.534 30.534 35.8296 24 35.8296ZM24 33.3876C26.4897 33.3876 28.8775 32.3986 30.638 30.638C32.3985 28.8775 33.3876 26.4897 33.3876 24C33.3876 21.5103 32.3985 19.1225 30.638 17.362C28.8775 15.6014 26.4897 14.6124 24 14.6124C21.5103 14.6124 19.1225 15.6014 17.362 17.362C15.6015 19.1225 14.6124 21.5103 14.6124 24C14.6124 26.4897 15.6015 28.8775 17.362 30.638C19.1225 32.3986 21.5103 33.3876 24 33.3876Z" fill="white"/>
</svg>
