<svg width="48" height="48" viewBox="0 0 48 48" fill="none" xmlns="http://www.w3.org/2000/svg">
<path d="M34.1999 32.6102C33.2214 32.6091 32.2525 32.8039 31.3504 33.1831C30.4484 33.5623 29.6313 34.1183 28.9475 34.8182L16.9199 26.8778C17.3168 25.9703 17.5217 24.9906 17.5217 24.0002C17.5217 23.0097 17.3168 22.03 16.9199 21.1226L28.9475 13.1822C29.6314 13.8824 30.4486 14.4385 31.3509 14.8178C32.2532 15.197 33.2223 15.3916 34.2011 15.3902C38.2355 15.3902 41.5211 12.1358 41.5211 8.13378C41.5199 4.13057 38.2343 0.876175 34.1999 0.876175C30.1631 0.876175 26.8775 4.13178 26.8775 8.13618C26.8775 9.15618 27.0911 10.1294 27.4787 11.0114L15.4523 18.9482C14.7686 18.2481 13.9515 17.6921 13.0494 17.3128C12.1474 16.9336 11.1784 16.7389 10.1999 16.7402C6.16548 16.7402 2.87988 19.9958 2.87988 23.999C2.87988 28.0022 6.16548 31.259 10.1999 31.259C11.1786 31.2602 12.1477 31.0655 13.05 30.6863C13.9523 30.3071 14.7695 29.751 15.4535 29.051L27.4799 36.989C27.0959 37.871 26.8799 38.8442 26.8799 39.8654C26.8799 43.8686 30.1643 47.1242 34.1999 47.1242C38.2355 47.1242 41.5199 43.8686 41.5199 39.8642C41.5199 35.8634 38.2355 32.609 34.1999 32.609V32.6102ZM34.1999 3.49097C36.7811 3.49097 38.8799 5.57417 38.8799 8.13497C38.8799 10.6934 36.7811 12.7742 34.1999 12.7742C31.6199 12.7742 29.5211 10.6934 29.5211 8.13378C29.5211 5.57417 31.6187 3.49097 34.2011 3.49097H34.1999ZM10.1999 28.643C7.61868 28.643 5.51988 26.5598 5.51988 24.0002C5.51988 21.4406 7.61868 19.3562 10.1999 19.3562C12.7799 19.3562 14.8787 21.4406 14.8787 24.0002C14.8787 26.5598 12.7823 28.6442 10.1987 28.6442L10.1999 28.643ZM34.1999 44.5094C31.6199 44.5094 29.5211 42.4262 29.5211 39.8654C29.5211 37.307 31.6211 35.2262 34.2011 35.2262C36.7811 35.2262 38.8811 37.307 38.8811 39.8666C38.8811 42.4262 36.7787 44.5094 34.2011 44.5094H34.1999Z" fill="white"/>
</svg>
