<svg width="48" height="48" viewBox="0 0 48 48" fill="none" xmlns="http://www.w3.org/2000/svg">
<path d="M46.9463 21.1633C46.9463 21.1273 46.9343 21.0901 46.9259 21.0529V21.0289C46.9259 21.0001 46.9115 20.9689 46.9019 20.9413L46.8875 20.8933L46.8695 20.8477C46.7944 20.6548 46.6742 20.4828 46.5188 20.346C46.3635 20.2092 46.1776 20.1117 45.9767 20.0617C45.3481 19.8382 44.7698 19.4928 44.275 19.0454C43.7802 18.5979 43.3785 18.0571 43.0931 17.4541L43.0667 17.4049L43.0511 17.3713V17.3569L43.0127 17.2909L42.9683 17.2369L42.9323 17.1889L42.8855 17.1313L42.8555 17.0989L42.7919 17.0353L42.7631 17.0185L42.6803 16.9501C42.4078 16.7493 42.0679 16.6619 41.7323 16.7065L41.6159 16.7281H41.5895L41.4983 16.7545L41.4455 16.7737L41.3807 16.8001H41.3579L41.3015 16.8289L41.2751 16.8409C40.5425 17.2473 39.7177 17.4585 38.8799 17.4541C37.5113 17.4551 36.1981 16.9131 35.2285 15.9471C34.2589 14.9811 33.7121 13.67 33.7079 12.3013C33.7007 11.2081 34.0487 10.1413 34.7015 9.2641C34.7781 9.16414 34.8377 9.05224 34.8779 8.9329L34.9139 8.8141C34.9139 8.7817 34.9283 8.7493 34.9331 8.7145V8.6881V8.5333V8.4457V8.4097V8.2837C34.9331 8.2561 34.9331 8.2261 34.9151 8.1973V8.1601L34.9091 8.0725L34.8959 8.0269L34.8695 7.9621L34.8479 7.9093L34.8215 7.8565L34.7891 7.7941L34.7579 7.7473L34.7195 7.6885L34.6799 7.6381L34.6379 7.5865L34.5839 7.5301L34.5383 7.5061C34.0027 7.02159 33.575 6.42988 33.2829 5.76937C32.9908 5.10886 32.8408 4.39431 32.8427 3.6721V3.5065V3.3709C32.8159 3.12865 32.7219 2.89873 32.5713 2.70706C32.4208 2.51538 32.2197 2.36958 31.9907 2.2861C21.1799 -1.6895 9.09112 2.8933 3.63592 13.0369L3.61792 13.0693C1.8124 16.4296 0.869011 20.1854 0.872323 24.0001C0.898211 28.9903 2.52485 33.8404 5.51296 37.8371C8.50108 41.8337 12.6929 44.766 17.4719 46.2025C19.5947 46.8121 21.7919 47.1229 23.9999 47.1265C25.5015 47.1294 26.9996 46.9835 28.4723 46.6909C33.7276 45.6525 38.4599 42.823 41.8619 38.6851C45.2639 34.5471 47.125 29.357 47.1275 24.0001C47.1275 23.0521 47.0675 22.1041 46.9463 21.1633ZM12.3683 7.1041C12.7974 7.49603 13.1444 7.96916 13.3894 8.49611C13.6343 9.02307 13.7724 9.59337 13.7954 10.174C13.8185 10.7547 13.7262 11.3341 13.5238 11.8789C13.3215 12.4236 13.0131 12.9228 12.6165 13.3475C12.2199 13.7723 11.743 14.1142 11.2134 14.3534C10.6839 14.5926 10.1121 14.7244 9.53121 14.7411C8.95034 14.7579 8.37192 14.6593 7.82942 14.451C7.28693 14.2427 6.79113 13.9289 6.37072 13.5277C7.88434 10.9798 9.93013 8.78871 12.3683 7.1041V7.1041ZM27.2291 44.2561C24.4169 44.6951 21.5449 44.5583 18.7871 43.8541C18.651 43.2516 18.6435 42.6272 18.7651 42.0216C18.8867 41.416 19.1346 40.8428 19.4928 40.3396C19.8509 39.8363 20.3112 39.4142 20.8435 39.101C21.3759 38.7877 21.9683 38.5902 22.5821 38.5214C23.196 38.4526 23.8174 38.5141 24.4059 38.7019C24.9944 38.8896 25.5366 39.1993 25.9973 39.6108C26.4579 40.0224 26.8265 40.5264 27.0791 41.0901C27.3317 41.6538 27.4626 42.2644 27.4631 42.8821C27.4595 43.3501 27.3791 43.8133 27.2291 44.2561ZM30.0371 43.6021C30.1398 42.6542 30.048 41.6954 29.7675 40.7842C29.4869 39.873 29.0234 39.0286 28.4053 38.3026C27.7873 37.5767 27.0276 36.9845 26.1729 36.5621C25.3181 36.1398 24.3862 35.8962 23.4341 35.8464C22.4819 35.7965 21.5297 35.9414 20.6355 36.2722C19.7413 36.6029 18.9239 37.1126 18.2334 37.77C17.5429 38.4275 16.9938 39.2188 16.6196 40.0957C16.2454 40.9727 16.054 41.9167 16.0571 42.8701L16.0559 42.9169C13.5594 41.8671 11.2953 40.3336 9.39409 38.4049C7.49284 36.4762 5.99201 34.1904 4.97808 31.6791C3.96415 29.1678 3.45716 26.4807 3.48631 23.7726C3.51546 21.0645 4.08017 18.389 5.14792 15.9001C6.53069 16.9162 8.23811 17.3899 9.94673 17.2313C11.6553 17.0728 13.2465 16.2931 14.4187 15.04C15.591 13.7869 16.2629 12.1473 16.3072 10.4319C16.3515 8.71654 15.7651 7.04448 14.6591 5.7325C19.4934 3.29447 25.0884 2.83938 30.2531 4.4641C30.4099 5.99597 31.017 7.44705 31.9979 8.6341C31.3957 9.75842 31.0831 11.0151 31.0883 12.2905C31.0899 14.3556 31.9116 16.3355 33.3728 17.7948C34.8339 19.2542 36.8148 20.0735 38.8799 20.0725C39.7212 20.0761 40.5572 19.9407 41.3543 19.6717C42.135 20.7876 43.1957 21.6783 44.4299 22.2541C44.4827 22.8325 44.5091 23.4181 44.5091 24.0001C44.5063 28.3844 43.1001 32.6526 40.4964 36.18C37.8927 39.7074 34.2283 42.3088 30.0395 43.6033L30.0371 43.6021ZM23.9999 17.4541C22.8666 17.4541 21.7586 17.7901 20.8162 18.4197C19.8738 19.0493 19.1392 19.9442 18.7053 20.9912C18.2714 22.0383 18.1577 23.1904 18.3786 24.3021C18.5994 25.4137 19.1449 26.4349 19.9461 27.2366C20.7472 28.0383 21.7681 28.5844 22.8796 28.8059C23.9911 29.0275 25.1434 28.9145 26.1907 28.4813C27.238 28.048 28.1333 27.314 28.7635 26.372C29.3937 25.43 29.7304 24.3223 29.7311 23.1889C29.7295 21.669 29.1253 20.2118 28.051 19.1368C26.9766 18.0618 25.5198 17.4566 23.9999 17.4541V17.4541ZM23.9999 26.3041C23.3838 26.3041 22.7815 26.1214 22.2692 25.7791C21.7569 25.4368 21.3576 24.9503 21.1219 24.381C20.8861 23.8118 20.8244 23.1854 20.9446 22.5812C21.0648 21.9769 21.3615 21.4218 21.7971 20.9861C22.2328 20.5504 22.7879 20.2538 23.3922 20.1336C23.9965 20.0134 24.6228 20.075 25.1921 20.3108C25.7613 20.5466 26.2478 20.9459 26.5901 21.4582C26.9324 21.9705 27.1151 22.5728 27.1151 23.1889C27.1126 24.0139 26.7834 24.8043 26.1996 25.3872C25.6158 25.9701 24.8249 26.298 23.9999 26.2993V26.3041ZM23.1275 12.5821C22.6995 12.1535 22.4332 11.5899 22.3742 10.987C22.3151 10.3842 22.4669 9.77956 22.8036 9.27608C23.1403 8.77259 23.6412 8.40142 24.2209 8.22579C24.8005 8.05016 25.4232 8.08093 25.9827 8.31286C26.5423 8.5448 27.0041 8.96355 27.2895 9.49778C27.575 10.032 27.6664 10.6487 27.5481 11.2427C27.4299 11.8368 27.1094 12.3715 26.6412 12.7557C26.173 13.14 25.586 13.35 24.9803 13.3501C24.2843 13.3501 23.6183 13.0717 23.1275 12.5785V12.5821ZM13.3679 26.1445C13.6198 26.3859 13.821 26.6752 13.9595 26.9954C14.098 27.3157 14.1711 27.6603 14.1745 28.0092C14.178 28.3581 14.1116 28.7042 13.9795 29.0271C13.8473 29.3499 13.6519 29.6432 13.4048 29.8895C13.1576 30.1358 12.8638 30.3302 12.5405 30.4614C12.2172 30.5925 11.8709 30.6577 11.522 30.6532C11.1732 30.6486 10.8287 30.5744 10.5089 30.4348C10.1892 30.2952 9.90051 30.0932 9.65992 29.8405C9.18824 29.3451 8.92915 28.6847 8.9381 28.0007C8.94704 27.3167 9.22331 26.6634 9.70779 26.1805C10.1923 25.6976 10.8465 25.4234 11.5305 25.4167C12.2145 25.41 12.874 25.6712 13.3679 26.1445V26.1445ZM36.8723 29.2369C37.1242 29.4783 37.3254 29.7676 37.4639 30.0878C37.6024 30.4081 37.6755 30.7527 37.679 31.1016C37.6824 31.4505 37.6161 31.7966 37.4839 32.1195C37.3517 32.4423 37.1563 32.7356 36.9092 32.9819C36.6621 33.2282 36.3682 33.4226 36.0449 33.5538C35.7216 33.6849 35.3753 33.7501 35.0264 33.7456C34.6776 33.741 34.3331 33.6668 34.0133 33.5272C33.6936 33.3876 33.4049 33.1856 33.1643 32.9329C32.6926 32.4375 32.4336 31.7771 32.4425 31.0931C32.4514 30.4091 32.7277 29.7558 33.2122 29.2729C33.6967 28.79 34.3509 28.5158 35.0349 28.5091C35.7189 28.5024 36.3784 28.7636 36.8723 29.2369V29.2369Z" fill="white"/>
</svg>
