<svg width="48" height="48" viewBox="0 0 48 48" fill="none" xmlns="http://www.w3.org/2000/svg">
<path d="M41.2788 22.9081C41.1719 22.6635 40.9955 22.4557 40.7715 22.3106C40.5474 22.1655 40.2857 22.0895 40.0188 22.0921H39.9936C39.7232 22.0942 39.4597 22.1769 39.2367 22.3298C39.0137 22.4827 38.8414 22.6987 38.742 22.9501C38.0838 24.6012 37.1622 26.1347 36.0132 27.4909C35.8377 27.7215 35.5839 27.88 35.2997 27.9366C35.0155 27.9932 34.7204 27.9439 34.47 27.7981C34.1655 27.6594 33.9233 27.4126 33.7903 27.1056C33.6573 26.7985 33.6429 26.4531 33.75 26.1361C34.5444 23.6497 34.8288 21.0361 34.5852 18.4441C33.6492 10.6969 28.4784 4.02247 21.0312 0.948074C20.8039 0.870338 20.5605 0.852356 20.3243 0.895857C20.0881 0.939358 19.867 1.04288 19.6824 1.19647C19.3128 1.50847 19.146 1.98727 19.2468 2.45047C20.3484 7.51207 21.0036 11.7577 18.6444 16.4425L18.5868 16.5541C18.1872 12.6397 15.8352 9.15727 12.2808 7.21807C11.8395 6.91073 11.3133 6.74867 10.7756 6.75448C10.2379 6.76029 9.71532 6.93367 9.28077 7.25047C8.92361 7.59195 8.67276 8.02939 8.55844 8.51011C8.44411 8.99084 8.47117 9.49437 8.63637 9.96007C9.21477 11.9185 9.38997 13.9681 9.15237 15.9901C8.81299 17.4975 8.28018 18.9548 7.56717 20.3257C7.12677 21.2821 6.68517 22.2397 6.34077 23.2273C4.63797 28.2757 5.34117 33.7909 8.26077 38.2933C11.0556 42.8737 15.8088 46.0333 21.2508 46.9213C22.1676 47.0653 23.0952 47.1373 24.0252 47.1409C29.052 47.1337 33.8664 45.1933 37.398 41.7493C42.4116 36.7417 43.9272 29.3785 41.2788 22.9093V22.9081ZM35.4516 39.9121C31.8588 43.4197 26.7396 45.0637 21.6792 44.3329C17.0292 43.5625 12.9708 40.8541 10.5912 36.9337C8.08797 33.0901 7.47717 28.3777 8.92317 24.0613C9.24117 23.1517 9.65157 22.2673 10.056 21.3841C10.864 19.8143 11.4611 18.1446 11.832 16.4185C12.1343 14.1824 11.9804 11.9082 11.3796 9.73327C14.9196 11.9461 16.6176 16.0717 15.6132 20.0173C15.4692 20.5225 15.6516 21.0613 16.0764 21.3865C16.2868 21.5463 16.5381 21.6434 16.8014 21.6668C17.0646 21.6902 17.3291 21.6387 17.5644 21.5185C19.1223 20.6132 20.3545 19.2391 21.0852 17.5921C23.0389 13.504 23.5094 8.86351 22.416 4.46647C27.6168 7.61527 31.0896 12.8329 31.8852 18.6985C32.0969 20.9541 31.8487 23.2292 31.1556 25.3861C30.552 27.2365 31.4196 29.2369 33.21 30.1261C34.8816 31.0237 36.984 30.6037 38.1468 29.1409C38.6988 28.4761 39.2088 27.7801 39.6708 27.0541C40.4244 31.7401 38.8632 36.4957 35.4516 39.9145V39.9121Z" fill="white"/>
</svg>