<svg width="33" height="26" viewBox="0 0 33 26" fill="none" xmlns="http://www.w3.org/2000/svg">
<g clip-path="url(#clip0)">
<path d="M32.3282 25.6349V25.7025H32.3898C32.4034 25.7025 32.4151 25.6993 32.4235 25.694C32.4313 25.6887 32.4358 25.6796 32.4358 25.6684C32.4358 25.6572 32.4313 25.6487 32.4235 25.6434C32.4151 25.6375 32.4034 25.6349 32.3898 25.6349H32.3282ZM32.3905 25.5876C32.4222 25.5876 32.4469 25.5948 32.4644 25.6093C32.4819 25.6237 32.4903 25.6434 32.4903 25.6684C32.4903 25.6894 32.4838 25.7065 32.4696 25.7203C32.4559 25.7334 32.4365 25.7419 32.4106 25.7452L32.4923 25.8404H32.4287L32.3529 25.7459H32.3282V25.8404H32.275V25.5876H32.3905ZM32.3742 25.9278C32.4034 25.9278 32.4307 25.9219 32.4553 25.9107C32.4806 25.8996 32.5026 25.8844 32.5214 25.8654C32.5402 25.8464 32.5551 25.824 32.5662 25.7978C32.5765 25.7721 32.5824 25.7446 32.5824 25.715C32.5824 25.6855 32.5765 25.6579 32.5662 25.6323C32.5551 25.6067 32.5402 25.5837 32.5214 25.5646C32.5026 25.5456 32.4806 25.5305 32.4553 25.5193C32.4307 25.5088 32.4034 25.5036 32.3742 25.5036C32.3451 25.5036 32.3172 25.5088 32.2919 25.5193C32.266 25.5305 32.2433 25.5456 32.2245 25.5646C32.2057 25.5837 32.1908 25.6067 32.1804 25.6323C32.1694 25.6579 32.1642 25.6855 32.1642 25.715C32.1642 25.7446 32.1694 25.7721 32.1804 25.7978C32.1908 25.824 32.2057 25.8464 32.2245 25.8654C32.2433 25.8844 32.266 25.8996 32.2919 25.9107C32.3172 25.9219 32.3451 25.9278 32.3742 25.9278ZM32.3742 25.4425C32.4125 25.4425 32.4475 25.4497 32.4812 25.4642C32.5143 25.4779 32.5428 25.4976 32.5681 25.5226C32.5928 25.5469 32.6122 25.5758 32.6265 25.6093C32.6407 25.6421 32.6479 25.6776 32.6479 25.715C32.6479 25.7524 32.6407 25.7879 32.6265 25.8207C32.6122 25.8536 32.5928 25.8825 32.5681 25.9074C32.5428 25.9317 32.5143 25.9514 32.4812 25.9659C32.4475 25.9803 32.4125 25.9875 32.3742 25.9875C32.3353 25.9875 32.2997 25.9803 32.266 25.9659C32.2323 25.9514 32.2031 25.9317 32.1784 25.9074C32.1538 25.8825 32.1343 25.8536 32.1201 25.8207C32.1058 25.7879 32.0987 25.7524 32.0987 25.715C32.0987 25.6776 32.1058 25.6421 32.1201 25.6093C32.1343 25.5758 32.1538 25.5469 32.1784 25.5226C32.2031 25.4976 32.2323 25.4779 32.266 25.4642C32.2997 25.4497 32.3353 25.4425 32.3742 25.4425ZM7.1124 24.4686C7.1124 23.9866 7.42427 23.5906 7.9339 23.5906C8.42084 23.5906 8.74958 23.9695 8.74958 24.4686C8.74958 24.9677 8.42084 25.3466 7.9339 25.3466C7.42427 25.3466 7.1124 24.9506 7.1124 24.4686ZM9.3046 24.4686V23.0974H8.71586V23.4303C8.52912 23.1834 8.24578 23.0284 7.86064 23.0284C7.10137 23.0284 6.50615 23.6313 6.50615 24.4686C6.50615 25.3065 7.10137 25.9087 7.86064 25.9087C8.24578 25.9087 8.52912 25.7538 8.71586 25.5068V25.8398H9.3046V24.4686ZM29.1997 24.4686C29.1997 23.9866 29.5116 23.5906 30.0212 23.5906C30.5088 23.5906 30.8369 23.9695 30.8369 24.4686C30.8369 24.9677 30.5088 25.3466 30.0212 25.3466C29.5116 25.3466 29.1997 24.9506 29.1997 24.4686ZM31.3926 24.4686V21.9961H30.8032V23.4303C30.6165 23.1834 30.3331 23.0284 29.948 23.0284C29.1887 23.0284 28.5935 23.6313 28.5935 24.4686C28.5935 25.3065 29.1887 25.9087 29.948 25.9087C30.3331 25.9087 30.6165 25.7538 30.8032 25.5068V25.8398H31.3926V24.4686ZM16.6126 23.5623C16.9919 23.5623 17.2357 23.8033 17.2979 24.2276H15.8929C15.9558 23.8316 16.1931 23.5623 16.6126 23.5623ZM16.6243 23.0284C15.8306 23.0284 15.2756 23.6136 15.2756 24.4686C15.2756 25.3407 15.8533 25.9087 16.6638 25.9087C17.0716 25.9087 17.4451 25.8056 17.7738 25.5246L17.4853 25.0826C17.2584 25.2658 16.9692 25.3696 16.6975 25.3696C16.3182 25.3696 15.9726 25.1916 15.8877 24.6978H17.8983C17.9042 24.6236 17.91 24.5487 17.91 24.4686C17.9042 23.6136 17.3829 23.0284 16.6243 23.0284ZM23.7332 24.4686C23.7332 23.9866 24.0451 23.5906 24.5547 23.5906C25.0416 23.5906 25.3704 23.9695 25.3704 24.4686C25.3704 24.9677 25.0416 25.3466 24.5547 25.3466C24.0451 25.3466 23.7332 24.9506 23.7332 24.4686ZM25.9254 24.4686V23.0974H25.3366V23.4303C25.1493 23.1834 24.8666 23.0284 24.4814 23.0284C23.7222 23.0284 23.1269 23.6313 23.1269 24.4686C23.1269 25.3065 23.7222 25.9087 24.4814 25.9087C24.8666 25.9087 25.1493 25.7538 25.3366 25.5068V25.8398H25.9254V24.4686ZM20.4082 24.4686C20.4082 25.3006 20.9801 25.9087 21.8529 25.9087C22.2607 25.9087 22.5324 25.8168 22.8267 25.5817L22.544 25.0997C22.3229 25.2606 22.0908 25.3466 21.8353 25.3466C21.3653 25.3407 21.0197 24.9966 21.0197 24.4686C21.0197 23.9406 21.3653 23.5965 21.8353 23.5906C22.0908 23.5906 22.3229 23.6766 22.544 23.8375L22.8267 23.3555C22.5324 23.1204 22.2607 23.0284 21.8529 23.0284C20.9801 23.0284 20.4082 23.6365 20.4082 24.4686ZM27.9989 23.0284C27.6592 23.0284 27.4381 23.1893 27.285 23.4303V23.0974H26.7015V25.8398H27.2909V24.3024C27.2909 23.8487 27.4835 23.5965 27.8686 23.5965C27.9879 23.5965 28.1124 23.6136 28.2369 23.6654L28.4184 23.1033C28.2881 23.0514 28.1182 23.0284 27.9989 23.0284ZM12.2165 23.3154C11.9332 23.1263 11.5428 23.0284 11.1123 23.0284C10.4263 23.0284 9.98476 23.3614 9.98476 23.9064C9.98476 24.3537 10.3135 24.6295 10.9191 24.7155L11.1972 24.7556C11.5201 24.8015 11.6725 24.8876 11.6725 25.0425C11.6725 25.2547 11.4572 25.3755 11.0552 25.3755C10.6474 25.3755 10.353 25.2435 10.1546 25.0885L9.87712 25.5528C10.2 25.7938 10.6079 25.9087 11.0494 25.9087C11.8314 25.9087 12.2846 25.5357 12.2846 25.0137C12.2846 24.5316 11.928 24.2795 11.3386 24.1934L11.0611 24.1527C10.8063 24.1186 10.602 24.0673 10.602 23.8835C10.602 23.6825 10.7946 23.5623 11.1175 23.5623C11.4631 23.5623 11.7976 23.6943 11.9617 23.7974L12.2165 23.3154ZM19.813 23.0284C19.4733 23.0284 19.2522 23.1893 19.0998 23.4303V23.0974H18.5162V25.8398H19.105V24.3024C19.105 23.8487 19.2976 23.5965 19.6827 23.5965C19.802 23.5965 19.9265 23.6136 20.051 23.6654L20.2325 23.1033C20.1022 23.0514 19.9323 23.0284 19.813 23.0284ZM14.7887 23.0974H13.8258V22.2653H13.2306V23.0974H12.6814V23.6425H13.2306V24.8935C13.2306 25.5298 13.4744 25.9087 14.1707 25.9087C14.4262 25.9087 14.7206 25.8286 14.9073 25.6966L14.7374 25.1857C14.5617 25.2888 14.3692 25.3407 14.2161 25.3407C13.9218 25.3407 13.8258 25.1568 13.8258 24.8817V23.6425H14.7887V23.0974ZM5.9855 25.8398V24.1186C5.9855 23.4704 5.57766 23.0343 4.9202 23.0284C4.5746 23.0225 4.21799 23.1315 3.96836 23.5164C3.78163 23.2123 3.48726 23.0284 3.07359 23.0284C2.78441 23.0284 2.50171 23.1145 2.28061 23.4356V23.0974H1.69122V25.8398H2.28579V24.3195C2.28579 23.8434 2.54645 23.5906 2.9491 23.5906C3.34007 23.5906 3.53783 23.8487 3.53783 24.3136V25.8398H4.13305V24.3195C4.13305 23.8434 4.40473 23.5906 4.7957 23.5906C5.19771 23.5906 5.39028 23.8487 5.39028 24.3136V25.8398H5.9855Z" fill="white"/>
<path d="M32.6914 16.7197V16.3191H32.5883L32.469 16.5943L32.3503 16.3191H32.2466V16.7197H32.3198V16.4176L32.4314 16.6784H32.5072L32.6187 16.417V16.7197H32.6914ZM32.0371 16.7197V16.3874H32.1694V16.3198H31.8322V16.3874H31.9645V16.7197H32.0371Z" fill="#F79410"/>
<path d="M20.9685 18.4426H12.0456V2.20093H20.9685V18.4426Z" fill="#FF5F00"/>
<path d="M12.6172 10.3206C12.6172 7.02589 14.1403 4.09108 16.5121 2.19976C14.7776 0.816741 12.5887 -0.00873658 10.2097 -0.00873658C4.57784 -0.00873658 0.0125427 4.61578 0.0125427 10.3206C0.0125427 16.0254 4.57784 20.6499 10.2097 20.6499C12.5887 20.6499 14.7776 19.8244 16.5121 18.4414C14.1403 16.5501 12.6172 13.6153 12.6172 10.3206Z" fill="#EB001B"/>
<path d="M33.0026 10.3206C33.0026 16.0254 28.4373 20.6499 22.8054 20.6499C20.4264 20.6499 18.2375 19.8244 16.5024 18.4414C18.8748 16.5501 20.3979 13.6153 20.3979 10.3206C20.3979 7.02589 18.8748 4.09108 16.5024 2.19976C18.2375 0.816741 20.4264 -0.00873658 22.8054 -0.00873658C28.4373 -0.00873658 33.0026 4.61578 33.0026 10.3206Z" fill="#F79E1B"/>
</g>
<defs>
<clipPath id="clip0">
<rect width="33" height="26" fill="white"/>
</clipPath>
</defs>
</svg>
