<svg width="46" height="14" viewBox="0 0 46 14" fill="none" xmlns="http://www.w3.org/2000/svg">
<g clip-path="url(#clip0)">
<path d="M19.9333 13.798H16.207L18.5377 0.245605H22.2638L19.9333 13.798Z" fill="white"/>
<path d="M33.4415 0.576978C32.7065 0.302765 31.5407 0 30.0993 0C26.4194 0 23.8281 1.84533 23.8122 4.4836C23.7816 6.43011 25.6675 7.51125 27.078 8.16028C28.5197 8.82349 29.0097 9.25637 29.0097 9.84753C28.9951 10.7554 27.8448 11.1739 26.7719 11.1739C25.2842 11.1739 24.4871 10.9582 23.2757 10.4531L22.785 10.2365L22.2635 13.2787C23.1375 13.6532 24.7477 13.9854 26.4194 14C30.3293 14 32.8748 12.1832 32.905 9.37173C32.9199 7.82897 31.924 6.64684 29.7771 5.68087C28.4738 5.06077 27.6757 4.64265 27.6757 4.00819C27.6909 3.4314 28.3507 2.84062 29.822 2.84062C31.0334 2.81169 31.9234 3.08552 32.5977 3.35954L32.9347 3.50345L33.4415 0.576978Z" fill="white"/>
<path d="M38.394 8.99685C38.7009 8.21829 39.8817 5.20501 39.8817 5.20501C39.8662 5.23394 40.188 4.41207 40.372 3.90753L40.6324 5.07528C40.6324 5.07528 41.3381 8.31927 41.4913 8.99685C40.9089 8.99685 39.13 8.99685 38.394 8.99685ZM42.9937 0.245605H40.1114C39.2225 0.245605 38.5473 0.4905 38.1638 1.37005L32.6288 13.7978H36.5387C36.5387 13.7978 37.1824 12.1251 37.3208 11.7649C37.7497 11.7649 41.5533 11.7649 42.1051 11.7649C42.212 12.2407 42.5497 13.7978 42.5497 13.7978H45.9999L42.9937 0.245605Z" fill="white"/>
<path d="M13.0946 0.245605L9.44526 9.48702L9.04648 7.61276C8.3718 5.4501 6.25587 3.10041 3.89459 1.93208L7.23722 13.7836H11.1777L17.0348 0.245605H13.0946Z" fill="white"/>
<path d="M6.05662 0.245605H0.0613342L0 0.519435C4.6767 1.64407 7.77399 4.35497 9.04652 7.61333L7.74322 1.38481C7.52865 0.519243 6.86925 0.274157 6.05662 0.245605Z" fill="#FAA61A"/>
</g>
<defs>
<clipPath id="clip0">
<rect width="46" height="14" fill="white"/>
</clipPath>
</defs>
</svg>
